<svg width="17" height="17" viewBox="0 0 17 17" fill="none" xmlns="http://www.w3.org/2000/svg">
<g clip-path="url(#clip0_493_1333)">
<path d="M16.9617 16.0342V16.0336H16.9657V10.153C16.9657 7.27618 16.3464 5.06012 12.9832 5.06012C11.3664 5.06012 10.2814 5.94735 9.83848 6.78848H9.79172V5.32869H6.60291V16.0336H9.92333V10.7329C9.92333 9.33725 10.1879 7.9877 11.9163 7.9877C13.6192 7.9877 13.6446 9.58044 13.6446 10.8224V16.0342H16.9617Z" fill="white"/>
<path d="M1.19601 5.32935H4.52045V16.0342H1.19601V5.32935Z" fill="white"/>
<path d="M2.8569 0C1.79397 0 0.931458 0.862508 0.931458 1.92544C0.931458 2.98838 1.79397 3.86893 2.8569 3.86893C3.91984 3.86893 4.78235 2.98838 4.78235 1.92544C4.78168 0.862508 3.91917 0 2.8569 0V0Z" fill="white"/>
</g>
<defs>
<clipPath id="clip0_493_1333">
<rect width="16.0342" height="16.0342" fill="white" transform="translate(0.931458)"/>
</clipPath>
</defs>
</svg>
