<svg width="15" height="16" viewBox="0 0 15 16" fill="none" xmlns="http://www.w3.org/2000/svg">
<g clip-path="url(#clip0_493_1341)">
<path d="M8.81827 8.01709C8.81827 8.74516 8.22798 9.33545 7.49991 9.33545C6.77184 9.33545 6.18155 8.74516 6.18155 8.01709C6.18155 7.28902 6.77184 6.69873 7.49991 6.69873C8.22798 6.69873 8.81827 7.28902 8.81827 8.01709Z" fill="white"/>
<path d="M9.72647 4.03271H5.27335C4.30403 4.03271 3.51553 4.82121 3.51553 5.79053V10.2437C3.51553 11.213 4.30403 12.0015 5.27335 12.0015H9.72647C10.6958 12.0015 11.4843 11.213 11.4843 10.2437V5.79053C11.4843 4.82121 10.6958 4.03271 9.72647 4.03271ZM7.49991 10.2144C6.28832 10.2144 5.30264 9.22868 5.30264 8.01709C5.30264 6.8055 6.28832 5.81982 7.49991 5.81982C8.71149 5.81982 9.69717 6.8055 9.69717 8.01709C9.69717 9.22868 8.71149 10.2144 7.49991 10.2144ZM10.0194 5.93701C9.77671 5.93701 9.57999 5.74029 9.57999 5.49756C9.57999 5.25483 9.77671 5.05811 10.0194 5.05811C10.2622 5.05811 10.4589 5.25483 10.4589 5.49756C10.4589 5.74029 10.2622 5.93701 10.0194 5.93701Z" fill="white"/>
<path d="M11.0448 0.51709H3.95499C1.7742 0.51709 -9.15527e-05 2.29138 -9.15527e-05 4.47217V11.562C-9.15527e-05 13.7428 1.7742 15.5171 3.95499 15.5171H11.0448C13.2256 15.5171 14.9999 13.7428 14.9999 11.562V4.47217C14.9999 2.29138 13.2256 0.51709 11.0448 0.51709ZM12.3632 10.2437C12.3632 11.6975 11.1803 12.8804 9.72647 12.8804H5.27335C3.81949 12.8804 2.63663 11.6975 2.63663 10.2437V5.79053C2.63663 4.33667 3.81949 3.15381 5.27335 3.15381H9.72647C11.1803 3.15381 12.3632 4.33667 12.3632 5.79053V10.2437Z" fill="white"/>
</g>
<defs>
<clipPath id="clip0_493_1341">
<rect width="15" height="15" fill="white" transform="translate(-9.15527e-05 0.51709)"/>
</clipPath>
</defs>
</svg>
