<svg width="17" height="17" viewBox="0 0 17 17" fill="none" xmlns="http://www.w3.org/2000/svg">
<g clip-path="url(#clip0_493_1337)">
<path d="M17 3.04553C16.4037 3.30709 15.7683 3.48046 15.1059 3.56464C15.7874 3.15777 16.3075 2.5184 16.552 1.74776C15.9167 2.12657 15.2152 2.39414 14.4676 2.54346C13.8643 1.90108 13.0044 1.50323 12.0664 1.50323C10.2465 1.50323 8.78142 2.98039 8.78142 4.79126C8.78142 5.05181 8.80346 5.30235 8.85758 5.54086C6.12474 5.40757 3.70658 4.09777 2.08211 2.10251C1.79851 2.59457 1.63215 3.15777 1.63215 3.76406C1.63215 4.90249 2.2184 5.91165 3.09227 6.49589C2.56414 6.48587 2.04604 6.33255 1.6071 6.09103C1.6071 6.10105 1.6071 6.11408 1.6071 6.12711C1.6071 7.72452 2.74653 9.05135 4.24072 9.357C3.97315 9.43016 3.68153 9.46523 3.37888 9.46523C3.16843 9.46523 2.95598 9.45321 2.75655 9.40911C3.18246 10.7109 4.39104 11.6679 5.82811 11.699C4.70972 12.5739 3.28969 13.101 1.75241 13.101C1.48283 13.101 1.22428 13.089 0.965729 13.0559C2.42184 13.9949 4.14752 14.5311 6.0085 14.5311C12.0574 14.5311 15.3645 9.52035 15.3645 5.17708C15.3645 5.03177 15.3595 4.89147 15.3524 4.75217C16.0048 4.28918 16.553 3.71095 17 3.04553Z" fill="white"/>
</g>
<defs>
<clipPath id="clip0_493_1337">
<rect width="16.0342" height="16.0342" fill="white" transform="translate(0.965698)"/>
</clipPath>
</defs>
</svg>
