<svg width="65" height="65" viewBox="0 0 65 65" fill="none" xmlns="http://www.w3.org/2000/svg">
<circle cx="32.5" cy="32.5" r="32.5" fill="#0A4D7C"/>
<g filter="url(#filter0_d_1339_422)">
<path fill-rule="evenodd" clip-rule="evenodd" d="M48.9983 29.4073L48.1237 17.3983C48.1034 17.1189 47.8812 16.8967 47.6018 16.8763L35.5927 16.0018C35.4268 15.9885 35.2684 16.0497 35.1526 16.1656L14.1654 37.1528C13.9449 37.3732 13.9449 37.7307 14.1654 37.9511L27.0489 50.8346C27.1591 50.9449 27.3036 51 27.448 51C27.5924 51 27.737 50.9449 27.8471 50.8346L48.8344 29.8475C48.9504 29.7315 49.0103 29.571 48.9983 29.4073ZM28.757 41.6773C28.0028 42.4316 27.036 42.8534 26.0345 42.8649H26.0306C25.9422 42.8649 25.8572 42.8303 25.7939 42.7684C25.7296 42.7055 25.6928 42.6199 25.6919 42.5301L25.6843 41.8526C25.6821 41.6656 25.8322 41.5122 26.0191 41.5101C26.6738 41.5028 27.2894 41.2293 27.7993 40.7194C28.0846 40.4339 28.6955 39.7123 28.2045 39.1805C28.0886 39.0555 27.9732 39.002 27.8196 39.002C27.4948 39.002 27.0233 39.2366 26.4408 39.5434L26.4402 39.5438L26.4402 39.5438C25.79 39.8861 25.0533 40.274 24.2832 40.274C23.7223 40.274 23.2255 40.0617 22.8065 39.6426C22.2667 39.1029 22.0547 38.4296 22.1935 37.6955C22.3054 37.1032 22.6476 36.5072 23.1832 35.9717C23.7396 35.4152 24.3784 35.0465 25.1363 34.8447C25.3171 34.796 25.5026 34.9037 25.5508 35.0847L25.7252 35.7392C25.7734 35.92 25.6661 36.1055 25.4852 36.1537C24.964 36.2925 24.5244 36.5464 24.1412 36.9296C23.8089 37.262 23.5842 37.6329 23.5249 37.9471C23.4708 38.2328 23.5469 38.467 23.7646 38.6847C23.9281 38.8483 24.0919 38.9214 24.2956 38.9214C24.6829 38.9214 25.2103 38.6601 25.8094 38.3448L25.8095 38.3447L25.8095 38.3447C26.4329 38.0165 27.1386 37.645 27.8396 37.645C28.3629 37.645 28.8202 37.8521 29.1988 38.2603C30.0532 39.1859 29.8755 40.5589 28.757 41.6773ZM33.9143 36.8972C33.1424 37.6688 32.1516 38.0938 31.1243 38.0938C30.052 38.0938 29.003 37.6353 28.1708 36.803C27.36 35.9922 26.9042 34.9695 26.8873 33.923C26.8704 32.8724 27.2959 31.859 28.0859 31.0691C28.8432 30.3116 29.7697 29.9113 30.7654 29.9113C31.8245 29.9113 32.8791 30.3828 33.735 31.2387L33.9745 31.4781C34.1068 31.6104 34.1068 31.8249 33.9745 31.9571L29.6561 36.2756C30.1113 36.5734 30.6127 36.7292 31.1243 36.7292C31.8057 36.7292 32.4391 36.4561 32.9562 35.9393C33.5639 35.3313 33.8817 34.5812 33.8511 33.8271C33.8473 33.7373 33.8795 33.6498 33.9404 33.5838C34.0012 33.5177 34.0859 33.4785 34.1757 33.4749L34.8524 33.4474C35.0417 33.4387 35.197 33.585 35.2045 33.772C35.251 34.9085 34.7928 36.0183 33.9143 36.8972ZM39.6434 31.1679C38.8677 31.9438 37.8671 32.371 36.826 32.371C35.7514 32.371 34.7055 31.917 33.8812 31.0925C33.0701 30.2814 32.6162 29.2563 32.6031 28.2061C32.5899 27.1525 33.0204 26.1346 33.8153 25.3397C34.5918 24.5631 35.5935 24.1354 36.6356 24.1354C37.7075 24.1354 38.7489 24.5866 39.568 25.4057C41.2594 27.0967 41.2911 29.5202 39.6434 31.1679ZM43.39 23.6846C42.1449 23.6846 41.1319 22.6716 41.1319 21.4267C41.1319 20.1816 42.1449 19.1685 43.39 19.1685C44.6351 19.1685 45.648 20.1816 45.648 21.4267C45.648 22.6716 44.6351 23.6846 43.39 23.6846ZM36.6369 25.4906C35.9568 25.4906 35.2953 25.7773 34.7745 26.2979C33.682 27.3905 33.7097 29.0042 34.8404 30.1348C35.409 30.7033 36.1146 31.0165 36.8274 31.0165C37.5065 31.0165 38.1668 30.7301 38.6869 30.2102C39.7794 29.1176 39.7476 27.5 38.6114 26.3639C38.0481 25.8007 37.3468 25.4906 36.6369 25.4906ZM29.0433 32.0277C29.5425 31.5287 30.1388 31.2649 30.7676 31.2649C31.2736 31.2649 31.782 31.4351 32.2551 31.7607L28.6978 35.3182C27.9933 34.2406 28.1149 32.9562 29.0433 32.0277Z" fill="white"/>
</g>
<defs>
<filter id="filter0_d_1339_422" x="10" y="16" width="42.9998" height="43" filterUnits="userSpaceOnUse" color-interpolation-filters="sRGB">
<feFlood flood-opacity="0" result="BackgroundImageFix"/>
<feColorMatrix in="SourceAlpha" type="matrix" values="0 0 0 0 0 0 0 0 0 0 0 0 0 0 0 0 0 0 127 0" result="hardAlpha"/>
<feOffset dy="4"/>
<feGaussianBlur stdDeviation="2"/>
<feComposite in2="hardAlpha" operator="out"/>
<feColorMatrix type="matrix" values="0 0 0 0 0 0 0 0 0 0 0 0 0 0 0 0 0 0 0.25 0"/>
<feBlend mode="overlay" in2="BackgroundImageFix" result="effect1_dropShadow_1339_422"/>
<feBlend mode="normal" in="SourceGraphic" in2="effect1_dropShadow_1339_422" result="shape"/>
</filter>
</defs>
</svg>
