<svg width="65" height="65" viewBox="0 0 65 65" fill="none" xmlns="http://www.w3.org/2000/svg">
<circle cx="32.5" cy="32.5" r="32.5" fill="#0A4D7C"/>
<g clip-path="url(#clip0_1339_424)">
<g filter="url(#filter0_d_1339_424)">
<path d="M16.375 25.75V42.5469C16.375 42.7251 16.4458 42.896 16.5718 43.022C16.6978 43.148 16.8687 43.2188 17.0469 43.2188H22.0583C21.4417 41.7752 21.1089 40.2264 21.0781 38.657C21.0595 37.1452 21.3412 35.6448 21.9068 34.2427C22.4725 32.8406 23.3108 31.5648 24.3733 30.4891C25.4358 29.4135 26.7012 28.5595 28.0962 27.9766C29.4912 27.3937 30.9881 27.0936 32.5 27.0936C34.0119 27.0936 35.5088 27.3937 36.9038 27.9766C38.2988 28.5595 39.5642 29.4135 40.6267 30.4891C41.6892 31.5648 42.5275 32.8406 43.0932 34.2427C43.6588 35.6448 43.9405 37.1452 43.9219 38.657C43.8931 40.2253 43.565 41.7736 42.9553 43.2188H47.9531C48.1313 43.2188 48.3022 43.148 48.4282 43.022C48.5542 42.896 48.625 42.7251 48.625 42.5469V25.75H16.375Z" fill="white"/>
<path d="M32.5 41.2031C34.3553 41.2031 35.8594 39.6991 35.8594 37.8438C35.8594 35.9884 34.3553 34.4844 32.5 34.4844C30.6447 34.4844 29.1406 35.9884 29.1406 37.8438C29.1406 39.6991 30.6447 41.2031 32.5 41.2031Z" fill="white"/>
<path d="M32.4999 28.4375C29.8093 28.4594 27.2372 29.5476 25.3478 31.4635C23.4585 33.3793 22.4062 35.9663 22.4218 38.657C22.4218 46.2842 32.498 54.1623 32.498 54.1623C32.498 54.1623 42.578 46.3682 42.578 38.657C42.5936 35.9663 41.5413 33.3793 39.652 31.4635C37.7627 29.5476 35.1906 28.4594 32.4999 28.4375ZM32.4999 42.5469C31.5697 42.5469 30.6604 42.271 29.887 41.7543C29.1136 41.2375 28.5108 40.5029 28.1548 39.6436C27.7988 38.7842 27.7057 37.8385 27.8872 36.9262C28.0686 36.0139 28.5166 35.1759 29.1743 34.5181C29.8321 33.8604 30.6701 33.4125 31.5824 33.231C32.4947 33.0495 33.4403 33.1427 34.2997 33.4986C35.1591 33.8546 35.8936 34.4574 36.4104 35.2308C36.9272 36.0043 37.203 36.9136 37.203 37.8438C37.2017 39.0907 36.7057 40.2861 35.824 41.1678C34.9423 42.0495 33.7468 42.5455 32.4999 42.5469Z" fill="white"/>
<path d="M38.5469 21.7188C38.9179 21.7188 39.2188 21.4179 39.2188 21.0469C39.2188 20.6758 38.9179 20.375 38.5469 20.375C38.1758 20.375 37.875 20.6758 37.875 21.0469C37.875 21.4179 38.1758 21.7188 38.5469 21.7188Z" fill="white"/>
<path d="M28.4688 20.375H20.4062V21.7188H28.4688V20.375Z" fill="white"/>
<path d="M43.9219 21.7188C44.2929 21.7188 44.5938 21.4179 44.5938 21.0469C44.5938 20.6758 44.2929 20.375 43.9219 20.375C43.5508 20.375 43.25 20.6758 43.25 21.0469C43.25 21.4179 43.5508 21.7188 43.9219 21.7188Z" fill="white"/>
<path d="M48.625 24.4062V17.0156C48.625 16.8374 48.5542 16.6665 48.4282 16.5405C48.3022 16.4145 48.1313 16.3438 47.9531 16.3438H17.0469C16.8687 16.3438 16.6978 16.4145 16.5718 16.5405C16.4458 16.6665 16.375 16.8374 16.375 17.0156V24.4062H48.625ZM43.9219 19.0312C44.3205 19.0312 44.7102 19.1495 45.0417 19.3709C45.3732 19.5924 45.6315 19.9072 45.7841 20.2755C45.9366 20.6438 45.9765 21.0491 45.8988 21.4401C45.821 21.8311 45.629 22.1902 45.3471 22.4721C45.0652 22.754 44.7061 22.946 44.3151 23.0238C43.9241 23.1015 43.5188 23.0616 43.1505 22.9091C42.7822 22.7565 42.4674 22.4982 42.2459 22.1667C42.0245 21.8352 41.9062 21.4455 41.9062 21.0469C41.9068 20.5125 42.1194 20.0001 42.4973 19.6223C42.8751 19.2444 43.3875 19.0318 43.9219 19.0312ZM38.5469 19.0312C38.9455 19.0312 39.3352 19.1495 39.6667 19.3709C39.9982 19.5924 40.2565 19.9072 40.4091 20.2755C40.5616 20.6438 40.6015 21.0491 40.5238 21.4401C40.446 21.8311 40.254 22.1902 39.9721 22.4721C39.6902 22.754 39.3311 22.946 38.9401 23.0238C38.5491 23.1015 38.1438 23.0616 37.7755 22.9091C37.4072 22.7565 37.0924 22.4982 36.8709 22.1667C36.6495 21.8352 36.5312 21.4455 36.5312 21.0469C36.5318 20.5125 36.7444 20.0001 37.1223 19.6223C37.5001 19.2444 38.0125 19.0318 38.5469 19.0312ZM19.0625 19.7031C19.0625 19.5249 19.1333 19.354 19.2593 19.228C19.3853 19.102 19.5562 19.0312 19.7344 19.0312H29.1406C29.3188 19.0312 29.4897 19.102 29.6157 19.228C29.7417 19.354 29.8125 19.5249 29.8125 19.7031V22.3906C29.8125 22.5688 29.7417 22.7397 29.6157 22.8657C29.4897 22.9917 29.3188 23.0625 29.1406 23.0625H19.7344C19.5562 23.0625 19.3853 22.9917 19.2593 22.8657C19.1333 22.7397 19.0625 22.5688 19.0625 22.3906V19.7031Z" fill="white"/>
</g>
</g>
<defs>
<filter id="filter0_d_1339_424" x="12.375" y="16.3438" width="40.25" height="45.8186" filterUnits="userSpaceOnUse" color-interpolation-filters="sRGB">
<feFlood flood-opacity="0" result="BackgroundImageFix"/>
<feColorMatrix in="SourceAlpha" type="matrix" values="0 0 0 0 0 0 0 0 0 0 0 0 0 0 0 0 0 0 127 0" result="hardAlpha"/>
<feOffset dy="4"/>
<feGaussianBlur stdDeviation="2"/>
<feComposite in2="hardAlpha" operator="out"/>
<feColorMatrix type="matrix" values="0 0 0 0 0 0 0 0 0 0 0 0 0 0 0 0 0 0 0.25 0"/>
<feBlend mode="normal" in2="BackgroundImageFix" result="effect1_dropShadow_1339_424"/>
<feBlend mode="normal" in="SourceGraphic" in2="effect1_dropShadow_1339_424" result="shape"/>
</filter>
<clipPath id="clip0_1339_424">
<rect width="43" height="43" fill="white" transform="translate(11 15)"/>
</clipPath>
</defs>
</svg>
