<svg width="65" height="65" viewBox="0 0 65 65" fill="none" xmlns="http://www.w3.org/2000/svg">
<circle cx="32.5" cy="32.5" r="32.5" fill="#0A4D7C"/>
<g clip-path="url(#clip0_1339_423)">
<g filter="url(#filter0_d_1339_423)">
<path d="M49.1361 45.9826C49.1361 45.9826 44.7382 38.5838 43.9494 37.2568C44.8302 36.9791 45.769 36.7323 46.1537 36.0536C46.7948 34.9226 45.6177 33.088 45.911 31.8794C46.2132 30.6355 48.0553 29.5444 48.0435 28.283C48.032 27.0541 46.1038 25.6362 45.7783 24.4055C45.4604 23.2028 46.5996 21.3446 45.9354 20.2272C45.2712 19.1096 43.0946 19.2222 42.1902 18.3681C41.2596 17.4891 41.2422 15.3174 40.1243 14.733C39.0018 14.1464 37.1978 15.3699 35.955 15.0957C34.7264 14.8246 33.6139 12.9889 32.3333 13.0009C31.0337 13.013 28.9863 15.1262 28.6628 15.2045C27.426 15.5042 25.5972 14.3175 24.4871 14.9275C23.3813 15.5347 23.4084 17.7065 22.4961 18.6042C21.6093 19.4766 19.431 19.4086 18.7897 20.5396C18.1486 21.6704 19.3257 23.5045 19.0325 24.7138C18.7385 25.9261 16.8333 27.1694 16.8464 28.5682C16.8582 29.8297 18.7249 30.8828 19.0521 32.1202C19.3702 33.3229 18.231 35.1808 18.8952 36.2987C19.2568 36.9071 20.0666 37.1508 20.8753 37.3847C20.9697 37.4119 21.1487 37.5156 21.0297 37.6924C20.4869 38.6498 16.1179 46.3551 16.1179 46.3551C15.7703 46.9679 16.062 47.4878 16.766 47.5108L20.2118 47.6223C20.9157 47.6454 21.8032 48.1485 22.1844 48.7407L24.0496 51.6401C24.4308 52.2324 25.0267 52.2157 25.3741 51.6029C25.3741 51.6029 30.434 42.6763 30.4361 42.6737C30.5381 42.5522 30.642 42.576 30.6921 42.6177C31.2592 43.0915 32.0481 43.5622 32.7028 43.556C33.3448 43.5501 33.9351 43.0946 34.5185 42.5874C34.566 42.5461 34.6816 42.4615 34.7684 42.6341C34.7698 42.6369 39.9892 51.419 39.9892 51.419C40.349 52.0244 40.9452 52.0292 41.3141 51.4292L43.1196 48.492C43.4886 47.8924 44.3656 47.3708 45.069 47.3335L48.5117 47.1513C49.2148 47.1139 49.4959 46.588 49.1361 45.9826ZM38.2604 38.0969C34.4727 40.3481 29.8992 40.1533 26.3871 37.9835C21.2404 34.7542 19.4938 27.9908 22.5198 22.6538C25.5804 17.2552 32.4007 15.2967 37.8462 18.1969C37.8748 18.2121 37.9031 18.2279 37.9315 18.2434C37.9718 18.2653 38.0121 18.2875 38.0522 18.3099C39.7327 19.2579 41.1952 20.643 42.2497 22.4173C45.4726 27.8401 43.6831 34.874 38.2604 38.0969Z" fill="white"/>
<path d="M37.2198 19.9224C37.204 19.9134 37.1879 19.905 37.172 19.8961C34.2621 18.248 30.5721 18.16 27.4973 19.9875C22.9344 22.6994 21.4284 28.6178 24.1403 33.1806C24.9678 34.573 26.0943 35.6801 27.3895 36.4701C27.4996 36.5384 27.611 36.6056 27.7248 36.6701C32.3424 39.288 38.2284 37.6611 40.8462 33.0438C43.4639 28.4262 41.8374 22.5403 37.2198 19.9224ZM38.4389 27.4197L36.8454 29.0022C36.3518 29.4922 36.0494 30.4533 36.1736 31.1378L36.5738 33.3475C36.6978 34.032 36.2932 34.3318 35.6745 34.0139L33.677 32.9875C33.0583 32.6695 32.0508 32.6789 31.4382 33.0083L29.4603 34.0719C28.8476 34.4013 28.4373 34.1091 28.5485 33.4224L28.9075 31.2056C29.0187 30.519 28.6984 29.5637 28.1958 29.0829L26.5732 27.5304C26.0705 27.0497 26.2218 26.5691 26.9091 26.4626L29.1284 26.1189C29.8157 26.0125 30.6253 25.4127 30.9273 24.7861L31.9023 22.7632C32.2044 22.1366 32.7081 22.1319 33.0217 22.7527L34.0344 24.7571C34.3481 25.3779 35.1686 25.9625 35.8579 26.0561L38.0832 26.3583C38.7723 26.452 38.9324 26.9296 38.4389 27.4197Z" fill="white"/>
</g>
</g>
<defs>
<filter id="filter0_d_1339_423" x="11.9712" y="13.0007" width="41.3215" height="47.073" filterUnits="userSpaceOnUse" color-interpolation-filters="sRGB">
<feFlood flood-opacity="0" result="BackgroundImageFix"/>
<feColorMatrix in="SourceAlpha" type="matrix" values="0 0 0 0 0 0 0 0 0 0 0 0 0 0 0 0 0 0 127 0" result="hardAlpha"/>
<feOffset dy="4"/>
<feGaussianBlur stdDeviation="2"/>
<feComposite in2="hardAlpha" operator="out"/>
<feColorMatrix type="matrix" values="0 0 0 0 0 0 0 0 0 0 0 0 0 0 0 0 0 0 0.25 0"/>
<feBlend mode="normal" in2="BackgroundImageFix" result="effect1_dropShadow_1339_423"/>
<feBlend mode="normal" in="SourceGraphic" in2="effect1_dropShadow_1339_423" result="shape"/>
</filter>
<clipPath id="clip0_1339_423">
<rect width="39" height="39" fill="white" transform="translate(13 13)"/>
</clipPath>
</defs>
</svg>
