<svg width="66" height="66" viewBox="0 0 66 66" fill="none" xmlns="http://www.w3.org/2000/svg">
<circle cx="33.252" cy="33.3379" r="32.5" fill="#0A4D7C"/>
<g clip-path="url(#clip0_1456_420)" filter="url(#filter0_d_1456_420)">
<path d="M47.1146 33.05L46.742 31.1553C45.6669 31.2856 44.5816 31.3089 43.502 31.2247C43.9756 32.7405 45.5293 33.1069 47.1146 33.05Z" fill="white"/>
<path d="M45.947 29.9682C44.3491 28.4272 41.9996 27.8208 39.7891 27.7072C40.528 29.9429 43.6164 30.1514 45.947 29.9682Z" fill="white"/>
<path d="M47.8042 43.8121L44.6463 37.5342C44.4962 37.9261 44.3254 38.3098 44.1348 38.6837L44.5516 44.4626L47.8042 43.8121Z" fill="white"/>
<path d="M33.9468 38.684C33.739 38.2861 33.5535 37.8771 33.391 37.4587L32.6836 38.8987L33.8331 40.2187L33.9468 38.684Z" fill="white"/>
<path d="M45.5929 34.2129C45.4855 34.7876 45.3655 35.3308 45.2266 35.8487C45.315 36.0066 45.6813 36.7392 48.0118 41.4066L48.9971 40.4213L46.6476 34.3076C46.2941 34.3032 45.9415 34.2715 45.5929 34.2129Z" fill="white"/>
<path d="M39.0935 42.4738H38.9988C37.4692 42.315 36.0631 41.5621 35.083 40.377L34.9883 41.558L35.2093 41.8422C36.2578 41.8422 35.3609 41.5264 41.6704 44.678C42.188 44.9133 42.7768 44.9382 43.3125 44.7475L42.9967 40.3959C42.0164 41.571 40.6158 42.3167 39.0935 42.4738Z" fill="white"/>
<path d="M45.4485 23.6333C48.0127 17.0333 47.9306 17.3365 47.8422 17.2796C47.7538 17.2228 48.0632 16.8502 43.5664 22.4649C44.2497 22.7561 44.8844 23.1501 45.4485 23.6333Z" fill="white"/>
<path d="M42.1572 31.0167C40.8808 30.8026 39.7434 30.0861 38.9993 29.0272C38.2551 30.0861 37.1177 30.8026 35.8414 31.0167C35.6691 32.297 34.8263 33.3879 33.6309 33.8777C33.8411 35.4572 34.3422 36.984 35.1088 38.3809C35.8505 39.9291 37.3277 40.9948 39.0309 41.2104C42.3845 40.8314 43.793 37.1935 44.374 33.8841C43.1736 33.396 42.3273 32.3014 42.1572 31.0167Z" fill="white"/>
<path d="M31.3136 31.168L30.9473 33.0627C32.5325 33.1132 34.1052 32.7595 34.5599 31.2501C33.4777 31.33 32.3903 31.3025 31.3136 31.168Z" fill="white"/>
<path d="M38.2605 27.7139C36.0247 27.8212 33.7321 28.4212 32.1152 29.9686C33.1465 30.0731 34.187 30.0413 35.21 29.8739C36.5805 29.6149 37.831 29.0402 38.2605 27.7139Z" fill="white"/>
<path d="M32.7525 35.8739C32.8851 35.6087 32.8409 36.2718 32.4682 34.2129C32.0986 34.2736 31.7249 34.3074 31.3503 34.3139L30.5293 36.4487L31.7546 37.8634L32.7525 35.8739Z" fill="white"/>
<path d="M38.9292 15.4101L37.9629 21.669C38.6736 21.6185 39.3869 21.6185 40.0976 21.669L39.1376 15.4038C39.1244 15.3562 39.0803 15.3237 39.0309 15.3252C38.9815 15.3267 38.9396 15.3618 38.9292 15.4101Z" fill="white"/>
<path d="M16.1363 41.7787L23.4121 35.065C23.5733 34.8927 23.8172 34.8247 24.0443 34.8886C24.2715 34.9526 24.4441 35.1378 24.4918 35.3689C24.5394 35.6001 24.4543 35.8385 24.271 35.9871L16.8373 42.8524C16.9068 43.0103 16.8373 42.5935 17.2731 48.0314L23.3173 38.9682C23.4306 38.757 23.6537 38.6281 23.8932 38.6355C24.1328 38.6428 24.3476 38.7851 24.4477 39.0029C24.5478 39.2206 24.5161 39.4763 24.3657 39.6629L17.431 50.0524C17.431 50.4012 17.7138 50.684 18.0626 50.684H20.2731L28.4078 40.8061C28.5523 40.6323 28.7784 40.5488 29.0011 40.587C29.2237 40.6252 29.4091 40.7793 29.4874 40.9912C29.5656 41.2032 29.5249 41.4408 29.3805 41.6145L21.9089 50.684H26.3299L30.8331 42.1766C31.0092 41.8952 31.3732 41.7981 31.666 41.9546C31.9589 42.111 32.0807 42.4674 31.9447 42.7703L27.7889 50.684H48.0752L48.5047 49.8061L44.0836 45.8777C43.0163 46.0987 42.1889 46.364 41.0963 45.8082L36.7573 43.6419L37.5784 44.5892C37.725 44.7607 37.7691 44.9974 37.6939 45.2102C37.6187 45.423 37.4357 45.5795 37.2139 45.6207C36.9921 45.662 36.765 45.5818 36.6184 45.4103C27.7763 35.185 28.4078 36.0314 28.1678 35.3682L25.5089 27.3661L21.1952 32.8545C20.72 33.4591 19.9265 33.7165 19.1868 33.506C18.4472 33.2955 17.9082 32.6588 17.8226 31.8945L17.7089 30.8903C15.5236 35.2608 15.631 34.9829 15.631 35.1914C15.631 41.305 15.5868 40.9514 15.7384 41.1787L16.1363 41.7787Z" fill="white"/>
<path d="M19.0727 31.7366C19.1005 31.9917 19.2799 32.2047 19.5266 32.2753C19.7733 32.346 20.0383 32.2604 20.1969 32.0587L25.1043 25.8756C23.6517 16.6419 23.8411 18.5051 23.8411 15.9472C23.8411 15.5984 23.5584 15.3156 23.2096 15.3156H17.1906C16.9974 15.3113 16.8128 15.3957 16.6897 15.5447C16.5665 15.6937 16.5184 15.8908 16.559 16.0798C18.5548 25.3387 17.9169 21.2714 19.0727 31.7366Z" fill="white"/>
<path d="M47.3677 26.5132C51.1571 23.5385 50.9677 23.7027 50.9677 23.6269C50.9677 23.5511 50.8855 23.5132 50.8287 23.5322L46.6855 25.0985C46.9643 25.5435 47.1931 26.018 47.3677 26.5132Z" fill="white"/>
<path d="M26.9991 27.8462L29.7402 27.423C25.8686 24.3725 26.2981 24.7199 26.1465 24.5557C26.4054 26.242 26.216 25.4967 26.9991 27.8462Z" fill="white"/>
<path d="M47.8418 28.6357C47.8778 29.0157 47.8905 29.3974 47.8797 29.7789C51.0881 29.2863 51.0376 29.3368 51.0376 29.2105C51.0376 29.0842 51.145 29.1473 47.8418 28.6357Z" fill="white"/>
<path d="M50.8477 44.9998C50.9008 44.8915 50.8877 44.7625 50.8139 44.6672C50.74 44.5719 50.6184 44.5269 50.5003 44.5513L45.6309 45.5556L49.1045 48.625L50.8477 44.9998Z" fill="white"/>
<path d="M34.5091 22.465C30.088 16.9008 30.3596 17.2166 30.2459 17.2798C30.1322 17.3429 29.9617 16.7935 32.6206 23.6335C33.1848 23.1472 33.8221 22.7529 34.5091 22.465Z" fill="white"/>
<path d="M40.7614 23.002C39.6142 22.8599 38.4538 22.8599 37.3066 23.002C35.6053 23.1242 34.0189 23.9061 32.8856 25.1809L32.8224 25.2567C32.0328 26.2889 31.5709 27.534 31.4961 28.8314C35.2856 25.4841 43.035 25.6735 46.5971 28.8314C46.3066 25.5409 44.3235 23.4756 40.7614 23.002Z" fill="white"/>
<path d="M30.0495 31.0487L27.959 30.7266C29.5127 35.3813 29.3864 35.1097 29.5948 35.3624L30.119 33.9981C29.7789 33.702 29.6224 33.2471 29.7085 32.8045L30.0495 31.0487Z" fill="white"/>
<path d="M30.2401 28.623L27.4043 29.0588L27.5117 29.3809L30.1959 29.7915C30.1878 29.4015 30.2026 29.0113 30.2401 28.623Z" fill="white"/>
<path d="M31.3631 25.1182C26.8031 23.4003 27.1063 23.4697 27.0431 23.5834C26.98 23.6971 26.721 23.4318 30.681 26.5518C30.8582 26.0517 31.0868 25.5712 31.3631 25.1182Z" fill="white"/>
</g>
<defs>
<filter id="filter0_d_1456_420" x="11" y="15" width="44" height="44" filterUnits="userSpaceOnUse" color-interpolation-filters="sRGB">
<feFlood flood-opacity="0" result="BackgroundImageFix"/>
<feColorMatrix in="SourceAlpha" type="matrix" values="0 0 0 0 0 0 0 0 0 0 0 0 0 0 0 0 0 0 127 0" result="hardAlpha"/>
<feOffset dy="4"/>
<feGaussianBlur stdDeviation="2"/>
<feComposite in2="hardAlpha" operator="out"/>
<feColorMatrix type="matrix" values="0 0 0 0 0 0 0 0 0 0 0 0 0 0 0 0 0 0 0.25 0"/>
<feBlend mode="normal" in2="BackgroundImageFix" result="effect1_dropShadow_1456_420"/>
<feBlend mode="normal" in="SourceGraphic" in2="effect1_dropShadow_1456_420" result="shape"/>
</filter>
<clipPath id="clip0_1456_420">
<rect width="36" height="36" fill="white" transform="translate(15 15)"/>
</clipPath>
</defs>
</svg>
