<svg width="66" height="66" viewBox="0 0 66 66" fill="none" xmlns="http://www.w3.org/2000/svg">
<circle cx="33.293" cy="33.3379" r="32.5" fill="#0A4D7C"/>
<g clip-path="url(#clip0_1456_419)">
<g filter="url(#filter0_d_1456_419)">
<path d="M53.3594 47.8693H42.3706L44.9978 39.2919C45.0538 39.1089 45.0197 38.9103 44.9062 38.7564C44.7923 38.6025 44.6124 38.5118 44.421 38.5118H42.714L44.7457 36.1864L44.7476 36.1845L47.0195 33.5845C47.2387 33.3336 47.2131 32.9526 46.9619 32.7334C46.7114 32.5141 46.3301 32.5397 46.1108 32.7906L44.4889 34.6465L42.4919 29.4958L51.4851 26.6403L47.681 30.9932C47.4618 31.2441 47.4877 31.6254 47.7386 31.8447C47.8528 31.9448 47.9945 31.9939 48.1352 31.9939C48.3032 31.9939 48.4706 31.9238 48.5897 31.7874L53.8139 25.8091C53.9919 25.6052 54.0125 25.3077 53.8642 25.0812C53.716 24.8551 53.4348 24.755 53.177 24.8369L36.1448 30.2453L36.5512 27.0619L36.5515 27.0597L36.5518 27.0578L36.5521 27.0525C36.5546 27.0328 36.5559 27.0128 36.5562 26.9928C36.5562 26.9872 36.5559 26.9815 36.5559 26.9759C36.5559 26.9596 36.5552 26.9434 36.5537 26.9271C36.5531 26.9205 36.5524 26.9143 36.5515 26.9077C36.5496 26.8924 36.5471 26.877 36.544 26.8617C36.5427 26.8551 36.5415 26.8486 36.5399 26.8423C36.5362 26.8273 36.5321 26.8126 36.5274 26.7979C36.5252 26.7913 36.5233 26.7848 36.5211 26.7785C36.5158 26.7641 36.5099 26.7497 36.5033 26.7353C36.5005 26.7294 36.4983 26.7231 36.4955 26.7172L36.4936 26.7128C36.4742 26.6737 36.4508 26.6381 36.4245 26.6049C36.4223 26.6021 36.4195 26.5993 36.417 26.5961C36.4054 26.5821 36.3932 26.5683 36.3801 26.5555L36.3763 26.5511C36.3735 26.5483 36.3704 26.5461 36.3676 26.5436C36.3557 26.5323 36.3438 26.5217 36.3313 26.5117C36.3256 26.5073 36.3203 26.5029 36.315 26.4989C36.3028 26.4898 36.2903 26.4813 36.2778 26.4732C36.2718 26.4695 36.2659 26.4657 36.2596 26.462C36.2459 26.4538 36.2315 26.4463 36.2171 26.4394C36.2121 26.4369 36.2074 26.4344 36.2024 26.4319C36.183 26.4232 36.1633 26.4153 36.1433 26.4088C36.1383 26.4072 36.1333 26.406 36.1286 26.4044C36.1129 26.3997 36.097 26.3953 36.081 26.3919C36.0742 26.3903 36.067 26.3894 36.0601 26.3881C36.0454 26.3853 36.031 26.3831 36.0163 26.3816C36.0091 26.3809 36.0019 26.3803 35.9947 26.3797C35.9794 26.3787 35.9644 26.3784 35.9487 26.3784C35.9425 26.3784 35.9362 26.3784 35.9296 26.3787C35.9118 26.3794 35.894 26.3809 35.8758 26.3831C35.8727 26.3838 35.8699 26.3834 35.8668 26.3841L35.8602 26.385L35.8561 26.3856L22.5003 28.3172C22.4963 28.3178 22.4925 28.3191 22.4888 28.3197C22.4781 28.3213 22.4675 28.3234 22.4572 28.326C22.4478 28.3278 22.4384 28.33 22.4293 28.3325C22.4196 28.335 22.4103 28.3382 22.4006 28.3413C22.3912 28.3444 22.3815 28.3475 22.3721 28.351C22.363 28.3544 22.3543 28.3585 22.3455 28.3622C22.3361 28.3663 22.3267 28.3701 22.318 28.3747C22.3086 28.3791 22.2998 28.3844 22.2911 28.3891C22.2829 28.3938 22.2745 28.3982 22.2664 28.4032C22.2567 28.4095 22.247 28.4164 22.2376 28.4232C22.231 28.4276 22.2244 28.432 22.2182 28.437C22.2069 28.4454 22.1963 28.4548 22.1857 28.4642C22.1816 28.468 22.1769 28.4714 22.1728 28.4755C22.16 28.4877 22.1478 28.5005 22.1359 28.5139C22.1344 28.5155 22.1328 28.5171 22.1312 28.5186C22.0965 28.5584 22.0674 28.6037 22.0433 28.6535C22.0399 28.6603 22.0361 28.6672 22.033 28.6744C21.9911 28.7711 21.9767 28.8734 21.9861 28.9716C21.9864 28.9756 21.9873 28.98 21.9877 28.9841C21.9895 28.9997 21.9917 29.0154 21.9949 29.0307L21.9952 29.0341L22.8989 33.4944L18.8105 35.3894C18.6676 35.4557 18.5559 35.5755 18.5002 35.7231L17.4439 38.5118H13.5664C13.3674 38.5118 13.181 38.61 13.0687 38.7742C12.9561 38.9384 12.9317 39.1477 13.0036 39.3332L16.3106 47.8693H14.1613C13.8282 47.8693 13.5582 48.1396 13.5582 48.4727C13.5582 48.8058 13.8282 49.0761 14.1613 49.0761H53.3594C53.6928 49.0761 53.9628 48.8058 53.9628 48.4727C53.9628 48.1396 53.6928 47.8693 53.3594 47.8693ZM43.6049 39.7186L41.1084 47.8693H34.5373L41.6596 39.7186H43.6049ZM30.6745 47.8693L28.2519 31.4787L35.2118 28.0232L32.6774 47.8693H30.6745ZM27.6275 30.4414L24.7791 29.2071L32.3061 28.1186L27.6275 30.4414ZM43.5924 35.6725L40.9939 38.6463C40.9408 38.6895 40.8954 38.7417 40.8594 38.8002L39.8619 39.9416L36.2944 31.464L41.3393 29.8618L43.5924 35.6725ZM19.5415 36.3806L23.1453 34.7103L23.9155 38.5118H18.7342L19.5415 36.3806ZM14.4472 39.7186H17.8568L17.8602 39.7189L17.8624 39.7186H24.1598L25.8111 47.8693H24.4166V43.5091C24.4166 43.176 24.1466 42.906 23.8135 42.906H20.6561C20.3226 42.906 20.0527 43.176 20.0527 43.5091V47.8693H17.6046L14.4472 39.7186Z" fill="white"/>
</g>
<path d="M34.8992 18.3219H34.9098C35.6868 18.3219 36.319 18.9541 36.319 19.7314C36.319 21.1737 37.4927 22.3474 38.935 22.3474H45.8749C47.3173 22.3474 48.4909 21.1737 48.4909 19.7314V19.6338C48.4909 18.1911 47.3173 17.0178 45.8749 17.0178H45.8643C45.0873 17.0178 44.4548 16.3856 44.4548 15.6083C44.4548 14.166 43.2814 12.9923 41.8388 12.9923H40.373C40.0398 12.9923 39.7696 13.2626 39.7696 13.5957C39.7696 13.9288 40.0398 14.1991 40.373 14.1991H41.8388C42.6158 14.1991 43.2483 14.8313 43.2483 15.6083C43.2483 17.051 44.4216 18.2243 45.8643 18.2243H45.8749C46.6519 18.2243 47.2841 18.8565 47.2841 19.6338V19.7314C47.2841 20.5084 46.6519 21.1406 45.8749 21.1406H38.935C38.158 21.1406 37.5258 20.5084 37.5258 19.7314C37.5258 18.2887 36.3522 17.1154 34.9098 17.1154H34.8992C34.1222 17.1154 33.4897 16.4832 33.4897 15.7059V15.6083C33.4897 14.8313 34.1219 14.1991 34.8992 14.1991H38.0107C38.3438 14.1991 38.6138 13.9288 38.6138 13.5957C38.6138 13.2626 38.3438 12.9923 38.0107 12.9923H34.8992C33.4565 12.9923 32.2832 14.166 32.2832 15.6083V15.7059C32.2832 17.1486 33.4565 18.3219 34.8992 18.3219Z" fill="white"/>
</g>
<defs>
<filter id="filter0_d_1456_419" x="8.96289" y="24.8086" width="49" height="32.2675" filterUnits="userSpaceOnUse" color-interpolation-filters="sRGB">
<feFlood flood-opacity="0" result="BackgroundImageFix"/>
<feColorMatrix in="SourceAlpha" type="matrix" values="0 0 0 0 0 0 0 0 0 0 0 0 0 0 0 0 0 0 127 0" result="hardAlpha"/>
<feOffset dy="4"/>
<feGaussianBlur stdDeviation="2"/>
<feComposite in2="hardAlpha" operator="out"/>
<feColorMatrix type="matrix" values="0 0 0 0 0 0 0 0 0 0 0 0 0 0 0 0 0 0 0.25 0"/>
<feBlend mode="normal" in2="BackgroundImageFix" result="effect1_dropShadow_1456_419"/>
<feBlend mode="normal" in="SourceGraphic" in2="effect1_dropShadow_1456_419" result="shape"/>
</filter>
<clipPath id="clip0_1456_419">
<rect width="41" height="41" fill="white" transform="translate(12.9629 10.5098)"/>
</clipPath>
</defs>
</svg>
