<svg width="66" height="66" viewBox="0 0 66 66" fill="none" xmlns="http://www.w3.org/2000/svg">
<circle cx="32.8633" cy="33.3379" r="32.5" fill="#0A4D7C"/>
<g clip-path="url(#clip0_1456_422)">
<path d="M36.7346 41.6582H35.8033C35.4567 41.6582 35.1758 41.926 35.1758 42.2565C35.1758 42.587 35.4567 42.8548 35.8033 42.8548H36.7346C37.0812 42.8548 37.3621 42.587 37.3621 42.2565C37.3621 41.926 37.0812 41.6582 36.7346 41.6582Z" fill="white"/>
<g filter="url(#filter0_d_1456_422)">
<path d="M53.9467 41.6579H51.056C51.4769 41.3934 51.876 41.0849 52.2463 40.7324C55.2157 37.9047 55.2189 33.3007 52.2533 30.4692L50.9327 29.2084C48.5186 26.9036 45.6993 25.1177 42.553 23.9001C39.518 22.7254 36.3129 22.1299 33.0267 22.1299C29.7407 22.1299 26.5355 22.7254 23.5004 23.8999C20.3539 25.1177 17.5344 26.9037 15.1204 29.2085L13.7998 30.4694C10.8344 33.3008 10.8377 37.9049 13.8072 40.7325C14.1743 41.0821 14.5726 41.3909 14.9955 41.6579H12.2017C11.8551 41.6579 11.5742 41.9257 11.5742 42.2563C11.5742 42.5868 11.8551 42.8546 12.2017 42.8546H26.3728C26.7194 42.8546 27.0003 42.5868 27.0003 42.2563C27.0003 41.9257 26.7194 41.6579 26.3728 41.6579H23.3749C23.8008 41.3891 24.2017 41.078 24.5709 40.7255L25.891 39.4652C25.9466 39.412 26.003 39.3597 26.0598 39.3078C26.3102 39.0794 26.3191 38.7007 26.0795 38.4619C25.8398 38.2231 25.4427 38.2146 25.1923 38.4431C25.1288 38.5011 25.0658 38.5596 25.0033 38.6193L23.6829 39.88C22.482 41.0266 20.8848 41.658 19.1853 41.658C17.7356 41.658 16.3608 41.197 15.2423 40.35C15.4006 40.1419 15.5701 39.9432 15.7522 39.759L16.9988 38.4982C19.162 36.3103 21.6873 34.6154 24.5044 33.4605C27.2195 32.3474 30.0869 31.783 33.0267 31.783C35.9664 31.783 38.8336 32.3474 41.5487 33.4605C42.5937 33.889 45.8624 35.9313 46.8263 36.5088C47.1198 36.6846 47.5071 36.6002 47.6915 36.3205C47.8483 36.0825 47.8078 35.7798 47.6118 35.5865C47.5773 35.5525 47.538 35.5218 47.4941 35.4955C47.4566 35.4731 47.4171 35.4491 47.3757 35.4237C46.2939 34.7598 43.928 33.1335 42.0446 32.3613C39.172 31.1835 36.138 30.5864 33.0267 30.5864C29.9155 30.5864 26.8814 31.1835 24.0088 32.3612C21.0331 33.5811 18.3674 35.3697 16.0858 37.6775L14.8392 38.9382C14.6608 39.1186 14.4915 39.3093 14.3322 39.5088C12.2221 37.1315 12.3389 33.5579 14.6878 31.3151L16.0084 30.0542C18.303 27.8635 20.9825 26.166 23.9724 25.0088C26.857 23.8926 29.9033 23.3266 33.0268 23.3266C36.1504 23.3266 39.1967 23.8927 42.0811 25.009C45.0708 26.166 47.7503 27.8633 50.0449 30.054L51.3655 31.3149C53.7146 33.5578 53.8315 37.1316 51.7213 39.5089C51.562 39.3094 51.3926 39.1186 51.2142 38.9382L49.9675 37.6773C49.2327 36.934 48.4407 36.2312 47.6118 35.5865C47.5726 35.556 47.5334 35.5257 47.4941 35.4955C47.4567 35.4669 47.417 35.443 47.3757 35.4237C47.1182 35.3036 46.7991 35.3645 46.6117 35.5863C46.3944 35.8437 46.437 36.2204 46.7069 36.4276C47.5341 37.0627 48.3239 37.7593 49.0544 38.4981L50.3009 39.759C50.4831 39.9432 50.6526 40.1417 50.8108 40.3498C48.3167 42.2337 44.6722 42.0776 42.3706 39.8801L41.05 38.6193C38.9078 36.5739 36.0583 35.4475 33.0267 35.4475C31.0919 35.4475 29.1858 35.9174 27.5144 36.8063C27.2117 36.9673 27.1033 37.3317 27.2721 37.6203C27.441 37.9088 27.8232 38.0124 28.1258 37.8513C29.6107 37.0615 31.3054 36.6441 33.0267 36.6441C35.7227 36.6441 38.2568 37.6459 40.1619 39.4648L41.4825 40.7256C41.8547 41.081 42.2563 41.3916 42.6797 41.6579H39.7756C39.429 41.6579 39.1481 41.9257 39.1481 42.2563C39.1481 42.5868 39.429 42.8546 39.7756 42.8546H53.9467C54.2933 42.8546 54.5742 42.5868 54.5742 42.2563C54.5742 41.9257 54.2933 41.6579 53.9467 41.6579Z" fill="white"/>
<path d="M47.4941 35.4955C47.538 35.5218 47.5773 35.5525 47.6118 35.5865C48.4407 36.2312 49.2327 36.934 49.9675 37.6773L51.2142 38.9382C51.3926 39.1186 51.562 39.3094 51.7213 39.5089C53.8315 37.1316 53.7146 33.5578 51.3655 31.3149L50.0449 30.054C47.7503 27.8633 45.0708 26.166 42.0811 25.009C39.1967 23.8927 36.1504 23.3266 33.0268 23.3266C29.9033 23.3266 26.857 23.8926 23.9724 25.0088C20.9825 26.166 18.303 27.8635 16.0084 30.0542L14.6878 31.3151C12.3389 33.5579 12.2221 37.1315 14.3322 39.5088C14.4915 39.3093 14.6608 39.1186 14.8392 38.9382L16.0858 37.6775C18.3674 35.3697 21.0331 33.5811 24.0088 32.3612C26.8814 31.1835 29.9155 30.5864 33.0267 30.5864C36.138 30.5864 39.172 31.1835 42.0446 32.3613C43.928 33.1335 46.2939 34.7598 47.3757 35.4237C47.417 35.443 47.4567 35.4669 47.4941 35.4955Z" fill="white"/>
</g>
<rect x="-7.92578" y="2.62988" width="82" height="100.449" rx="4.5" stroke="#9747FF" stroke-dasharray="10 5"/>
</g>
<defs>
<filter id="filter0_d_1456_422" x="7.57422" y="22.1299" width="51" height="28.7247" filterUnits="userSpaceOnUse" color-interpolation-filters="sRGB">
<feFlood flood-opacity="0" result="BackgroundImageFix"/>
<feColorMatrix in="SourceAlpha" type="matrix" values="0 0 0 0 0 0 0 0 0 0 0 0 0 0 0 0 0 0 127 0" result="hardAlpha"/>
<feOffset dy="4"/>
<feGaussianBlur stdDeviation="2"/>
<feComposite in2="hardAlpha" operator="out"/>
<feColorMatrix type="matrix" values="0 0 0 0 0 0 0 0 0 0 0 0 0 0 0 0 0 0 0.25 0"/>
<feBlend mode="normal" in2="BackgroundImageFix" result="effect1_dropShadow_1456_422"/>
<feBlend mode="normal" in="SourceGraphic" in2="effect1_dropShadow_1456_422" result="shape"/>
</filter>
<clipPath id="clip0_1456_422">
<rect width="43" height="41" fill="white" transform="translate(11.5742 11.9922)"/>
</clipPath>
</defs>
</svg>
