<svg width="66" height="66" viewBox="0 0 66 66" fill="none" xmlns="http://www.w3.org/2000/svg">
<circle cx="33.4336" cy="33.3379" r="32.5" fill="#0A4D7C"/>
<g clip-path="url(#clip0_1456_423)">
<g filter="url(#filter0_d_1456_423)">
<path d="M22.4003 15C20.5157 15 18.9824 16.5333 18.9824 18.4178C18.9824 20.3024 20.5157 21.8357 22.4003 21.8357C24.2848 21.8357 25.8181 20.3024 25.8181 18.4178C25.8181 16.5333 24.2848 15 22.4003 15Z" fill="white"/>
</g>
<g filter="url(#filter1_d_1456_423)">
<path d="M16 43.58C21.7999 42.1495 27.9521 41.0659 34.4078 40.3365C29.4447 38.8937 22.7996 37.612 16 37.4961V43.58Z" fill="white"/>
</g>
<g filter="url(#filter2_d_1456_423)">
<path d="M38.4447 39.9308C39.7843 39.8123 41.135 39.7072 42.4984 39.618V33.4492H47.1134C48.1465 33.4492 48.9841 32.6116 48.9841 31.5784V26.6937C48.9841 25.6602 48.1465 24.8226 47.1134 24.8226C46.0802 24.8226 45.2426 25.6602 45.2426 26.6937V29.7074H42.4984V20.6673C42.4984 19.548 41.591 18.6406 40.4717 18.6406C39.3524 18.6406 38.4447 19.548 38.4447 20.6673V26.4856H35.7008V24.9062C35.7008 23.8727 34.8632 23.0351 33.8298 23.0351C32.7966 23.0351 31.959 23.8727 31.959 24.9062V28.3564C31.959 29.3899 32.7966 30.2275 33.8298 30.2275H38.4447V39.9308Z" fill="white"/>
</g>
<g filter="url(#filter3_d_1456_423)">
<path d="M16 48.9997H49.9777V41.2725C37.6967 41.5887 26.2748 43.054 16 45.6317V48.9997Z" fill="white"/>
</g>
</g>
<defs>
<filter id="filter0_d_1456_423" x="14.9824" y="15" width="14.8359" height="14.8357" filterUnits="userSpaceOnUse" color-interpolation-filters="sRGB">
<feFlood flood-opacity="0" result="BackgroundImageFix"/>
<feColorMatrix in="SourceAlpha" type="matrix" values="0 0 0 0 0 0 0 0 0 0 0 0 0 0 0 0 0 0 127 0" result="hardAlpha"/>
<feOffset dy="4"/>
<feGaussianBlur stdDeviation="2"/>
<feComposite in2="hardAlpha" operator="out"/>
<feColorMatrix type="matrix" values="0 0 0 0 0 0 0 0 0 0 0 0 0 0 0 0 0 0 0.25 0"/>
<feBlend mode="normal" in2="BackgroundImageFix" result="effect1_dropShadow_1456_423"/>
<feBlend mode="normal" in="SourceGraphic" in2="effect1_dropShadow_1456_423" result="shape"/>
</filter>
<filter id="filter1_d_1456_423" x="12" y="37.4961" width="26.4077" height="14.084" filterUnits="userSpaceOnUse" color-interpolation-filters="sRGB">
<feFlood flood-opacity="0" result="BackgroundImageFix"/>
<feColorMatrix in="SourceAlpha" type="matrix" values="0 0 0 0 0 0 0 0 0 0 0 0 0 0 0 0 0 0 127 0" result="hardAlpha"/>
<feOffset dy="4"/>
<feGaussianBlur stdDeviation="2"/>
<feComposite in2="hardAlpha" operator="out"/>
<feColorMatrix type="matrix" values="0 0 0 0 0 0 0 0 0 0 0 0 0 0 0 0 0 0 0.25 0"/>
<feBlend mode="normal" in2="BackgroundImageFix" result="effect1_dropShadow_1456_423"/>
<feBlend mode="normal" in="SourceGraphic" in2="effect1_dropShadow_1456_423" result="shape"/>
</filter>
<filter id="filter2_d_1456_423" x="27.959" y="18.6406" width="25.0254" height="29.2902" filterUnits="userSpaceOnUse" color-interpolation-filters="sRGB">
<feFlood flood-opacity="0" result="BackgroundImageFix"/>
<feColorMatrix in="SourceAlpha" type="matrix" values="0 0 0 0 0 0 0 0 0 0 0 0 0 0 0 0 0 0 127 0" result="hardAlpha"/>
<feOffset dy="4"/>
<feGaussianBlur stdDeviation="2"/>
<feComposite in2="hardAlpha" operator="out"/>
<feColorMatrix type="matrix" values="0 0 0 0 0 0 0 0 0 0 0 0 0 0 0 0 0 0 0.25 0"/>
<feBlend mode="normal" in2="BackgroundImageFix" result="effect1_dropShadow_1456_423"/>
<feBlend mode="normal" in="SourceGraphic" in2="effect1_dropShadow_1456_423" result="shape"/>
</filter>
<filter id="filter3_d_1456_423" x="12" y="41.2725" width="41.9775" height="15.7273" filterUnits="userSpaceOnUse" color-interpolation-filters="sRGB">
<feFlood flood-opacity="0" result="BackgroundImageFix"/>
<feColorMatrix in="SourceAlpha" type="matrix" values="0 0 0 0 0 0 0 0 0 0 0 0 0 0 0 0 0 0 127 0" result="hardAlpha"/>
<feOffset dy="4"/>
<feGaussianBlur stdDeviation="2"/>
<feComposite in2="hardAlpha" operator="out"/>
<feColorMatrix type="matrix" values="0 0 0 0 0 0 0 0 0 0 0 0 0 0 0 0 0 0 0.25 0"/>
<feBlend mode="normal" in2="BackgroundImageFix" result="effect1_dropShadow_1456_423"/>
<feBlend mode="normal" in="SourceGraphic" in2="effect1_dropShadow_1456_423" result="shape"/>
</filter>
<clipPath id="clip0_1456_423">
<rect width="34" height="34" fill="white" transform="translate(16 15)"/>
</clipPath>
</defs>
</svg>
