<svg width="66" height="66" viewBox="0 0 66 66" fill="none" xmlns="http://www.w3.org/2000/svg">
<circle cx="33.252" cy="32.5977" r="32.5" fill="#0A4D7C"/>
<g clip-path="url(#clip0_1456_424)">
<g filter="url(#filter0_d_1456_424)">
<path d="M41.8802 28.823L41.6358 29.0743V31.7402L42.0447 32.0577L42.561 32.092L42.9402 31.8384V29.1086L42.5222 28.823H41.8802ZM47.3308 29.0423C47.1069 29.0423 46.7277 29.273 46.7277 29.273L46.8533 32.0257L47.2006 32.309L47.71 32.3432L48.128 32.0942V29.4261L47.9019 29.1725C47.9019 29.1702 47.5546 29.0423 47.3308 29.0423ZM19.1484 27.4912L18.7989 27.8042V30.5043L19.1826 30.7556H19.7834L20.1649 30.534V27.8042L19.7834 27.4912H19.1484ZM53.229 24.5033C51.8379 24.5033 51.1731 24.5626 49.2268 24.734C47.2897 24.9076 44.569 24.9076 42.1818 24.9076C39.7946 24.9076 37.0191 25.2548 35.966 25.0835C34.9083 24.9076 33.1905 25.3119 32.1945 24.3936C31.1985 23.4661 31.5297 24.2177 30.6959 23.8728C29.8667 23.5233 29.4783 23.7563 28.423 23.1806C27.3699 22.6072 26.6457 22.8928 25.3185 23.0664C23.9821 23.2377 22.6549 23.2377 22.1546 23.2377C21.6521 23.2377 20.9325 23.1829 20.6538 23.2377C20.3751 23.2948 19.9342 23.5233 19.7126 23.5233C19.491 23.5233 18.9359 23.8157 18.7144 23.9299C18.4882 24.0441 17.8783 24.2177 17.6041 24.501C17.3254 24.7911 17.6041 24.501 17.3254 24.903C17.0445 25.3074 16.9417 24.903 16.7109 24.9578C16.4916 25.0195 16.1033 25.0789 15.8269 25.1337C15.5528 25.1908 15.6601 25.1908 15.3289 25.1908C14.9954 25.1908 14.7738 25.3051 14.2187 25.0789C13.6613 24.8459 13.6088 25.1337 13.3872 25.2525C13.161 25.3667 13.3301 25.4239 12.8846 25.481C12.4437 25.5381 11.7196 25.481 11.7196 25.481L11 25.4239V42.1592H56V24.5604C56 24.5604 54.6157 24.5033 53.229 24.5033ZM16.2975 32.2816H14.8675V30.2165H13.474V32.2793H12.0508V26.8584H13.474V28.8847H14.8675V26.8584H16.2975V32.2816ZM21.5561 31.0731L20.1878 31.9321H18.6207L17.3414 31.1645V27.2514L18.5522 26.445H20.3157L21.5538 27.2719L21.5561 31.0731ZM26.4858 31.9321L23.0181 31.8361V26.5089L24.3157 26.5706L24.3499 30.7533L26.4881 30.8835L26.4858 31.9321ZM30.6434 32.1856L27.1072 31.9343L27.1369 26.6985L28.5029 26.7648V30.8196L30.6457 30.9795L30.6434 32.1856ZM32.9392 30.566V32.341L31.3561 32.309L31.3264 30.4701L29.9878 26.8242L31.3584 26.8881L32.1214 28.9441L32.8775 26.9156L34.2367 27.0092L32.9392 30.566ZM38.328 32.9395H37.661L36.9368 31.0069L36.2104 32.8481H35.4817L34.5634 27.5255L35.8381 27.5894L36.2127 29.3941L36.5851 27.5917H37.2818L37.8872 29.5837L38.3006 27.6808H39.3834L38.328 32.9395ZM44.288 32.341L43.0864 33.1017H41.4668L40.1715 32.341V28.4712L41.3708 27.8042H42.9905L44.288 28.5694V32.341ZM49.453 32.5968L48.473 33.3575L46.6957 33.3872L45.5558 32.5671L45.4941 28.7271L46.6043 28.06L48.256 28.0943L49.453 28.855V32.5968ZM54.9332 31.9663L53.6585 32.727H50.682L50.618 27.3998L53.5352 27.3085L54.9286 28.0029V31.9663H54.9332ZM53.0326 28.4141L52.0823 28.4484L52.112 31.5871C52.112 31.5871 52.9686 31.6808 53.1263 31.6168C53.2793 31.5574 53.4438 31.3016 53.4438 31.3016C53.4438 31.3016 53.4803 28.8596 53.4438 28.6722C53.4118 28.4804 53.0326 28.4141 53.0326 28.4141Z" fill="white"/>
</g>
</g>
<defs>
<filter id="filter0_d_1456_424" x="7" y="22.8398" width="53" height="27.3193" filterUnits="userSpaceOnUse" color-interpolation-filters="sRGB">
<feFlood flood-opacity="0" result="BackgroundImageFix"/>
<feColorMatrix in="SourceAlpha" type="matrix" values="0 0 0 0 0 0 0 0 0 0 0 0 0 0 0 0 0 0 127 0" result="hardAlpha"/>
<feOffset dy="4"/>
<feGaussianBlur stdDeviation="2"/>
<feComposite in2="hardAlpha" operator="out"/>
<feColorMatrix type="matrix" values="0 0 0 0 0 0 0 0 0 0 0 0 0 0 0 0 0 0 0.25 0"/>
<feBlend mode="normal" in2="BackgroundImageFix" result="effect1_dropShadow_1456_424"/>
<feBlend mode="normal" in="SourceGraphic" in2="effect1_dropShadow_1456_424" result="shape"/>
</filter>
<clipPath id="clip0_1456_424">
<rect width="45" height="45" fill="white" transform="translate(11 10)"/>
</clipPath>
</defs>
</svg>
