<svg width="66" height="66" viewBox="0 0 66 66" fill="none" xmlns="http://www.w3.org/2000/svg">
<circle cx="33.293" cy="32.5977" r="32.5" fill="#0A4D7C"/>
<g clip-path="url(#clip0_1456_425)" filter="url(#filter0_d_1456_425)">
<g filter="url(#filter1_d_1456_425)">
<path d="M51.3999 47.8H49.6V31C49.6 30.6688 49.3311 30.3999 48.9999 30.3999H45.4V19.6C45.4 19.2688 45.1311 18.9999 44.8001 18.9999H37.5999C37.2687 18.9999 37.0001 19.2688 37.0001 19.6V27.9999H32.8C32.4688 27.9999 32.1999 28.2688 32.1999 28.6V32.2H28.5999V24.4C28.5999 24.0687 28.3313 23.8001 28.0001 23.8001H27.4V20.8C27.4 20.4688 27.1311 20.1999 26.8001 20.1999H26.2V18.9999C26.2 17.8851 25.432 16.9534 24.3999 16.6851V13.6001C24.3999 13.2689 24.1313 13 23.8 13C23.4688 13 23.1999 13.2689 23.1999 13.6001V16.6851C22.168 16.9534 21.4001 17.8851 21.4001 18.9999V20.1999H20.7999C20.4687 20.1999 20.2001 20.4688 20.2001 20.8V23.8001H19.5999C19.2687 23.8001 19.0001 24.0687 19.0001 24.4V47.8H16.6001C16.2689 47.8 16 48.0689 16 48.3999C16 48.7311 16.2689 49 16.6001 49H51.3999C51.7311 49 52 48.7311 52 48.3999C52 48.0689 51.7311 47.8 51.3999 47.8ZM41.8 22C41.8 21.6688 42.0689 21.3999 42.3999 21.3999C42.7311 21.3999 43 21.6688 43 22V42.4C43 42.7312 42.7311 43.0001 42.3999 43.0001C42.0689 43.0001 41.8 42.7312 41.8 42.4V22ZM41.8 44.7999C41.8 44.4687 42.0689 44.2001 42.3999 44.2001C42.7311 44.2001 43 44.4687 43 44.7999V45.9999C43 46.3311 42.7311 46.6 42.3999 46.6C42.0689 46.6 41.8 46.3311 41.8 45.9999V44.7999ZM39.4001 22C39.4001 21.6688 39.6687 21.3999 39.9999 21.3999C40.3311 21.3999 40.6 21.6688 40.6 22V23.2C40.6 23.5312 40.3311 23.8001 39.9999 23.8001C39.6687 23.8001 39.4001 23.5312 39.4001 23.2V22ZM39.4001 25.5999C39.4001 25.2687 39.6687 25.0001 39.9999 25.0001C40.3311 25.0001 40.6 25.2687 40.6 25.5999V45.9999C40.6 46.3311 40.3311 46.6 39.9999 46.6C39.6687 46.6 39.4001 46.3311 39.4001 45.9999V25.5999ZM33.3999 29.1999H37.0001V41.8001H33.3999V29.1999ZM32.1999 33.4V41.8001H28.5999V33.4H32.1999ZM25.6001 38.8C25.2689 38.8 25 38.5311 25 38.1999V36.9999C25 36.6687 25.2689 36.4001 25.6001 36.4001C25.9311 36.4001 26.2 36.6687 26.2 36.9999V38.1999C26.2 38.5311 25.9311 38.8 25.6001 38.8ZM26.2 41.8001V43.0001C26.2 43.3313 25.9311 43.5999 25.6001 43.5999C25.2689 43.5999 25 43.3313 25 43.0001V41.8001C25 41.4689 25.2689 41.2 25.6001 41.2C25.9311 41.2 26.2 41.4689 26.2 41.8001ZM25.6001 34.0001C25.2689 34.0001 25 33.7312 25 33.4V32.2C25 31.8687 25.2689 31.6001 25.6001 31.6001C25.9311 31.6001 26.2 31.8687 26.2 32.2V33.4C26.2 33.7312 25.9311 34.0001 25.6001 34.0001ZM25.6001 29.1999C25.2689 29.1999 25 28.9313 25 28.6V27.4001C25 27.0688 25.2689 26.7999 25.6001 26.7999C25.9311 26.7999 26.2 27.0688 26.2 27.4001V28.6C26.2 28.9313 25.9311 29.1999 25.6001 29.1999ZM23.8 41.2C23.4688 41.2 23.1999 40.9311 23.1999 40.6001V39.3999C23.1999 39.0689 23.4688 38.8 23.8 38.8C24.1313 38.8 24.3999 39.0689 24.3999 39.3999V40.6001C24.3999 40.9311 24.1313 41.2 23.8 41.2ZM24.3999 44.2001V45.4001C24.3999 45.7313 24.1313 45.9999 23.8 45.9999C23.4688 45.9999 23.1999 45.7313 23.1999 45.4001V44.2001C23.1999 43.8688 23.4688 43.5999 23.8 43.5999C24.1313 43.5999 24.3999 43.8688 24.3999 44.2001ZM23.8 36.4001C23.4688 36.4001 23.1999 36.1312 23.1999 35.7999V34.5999C23.1999 34.2687 23.4688 34.0001 23.8 34.0001C24.1313 34.0001 24.3999 34.2687 24.3999 34.5999V35.7999C24.3999 36.1312 24.1313 36.4001 23.8 36.4001ZM23.8 31.6001C23.4688 31.6001 23.1999 31.3312 23.1999 31V29.8C23.1999 29.4688 23.4688 29.1999 23.8 29.1999C24.1313 29.1999 24.3999 29.4688 24.3999 29.8V31C24.3999 31.3312 24.1313 31.6001 23.8 31.6001ZM21.9999 38.8C21.6687 38.8 21.4001 38.5311 21.4001 38.1999V36.9999C21.4001 36.6687 21.6687 36.4001 21.9999 36.4001C22.3311 36.4001 22.6 36.6687 22.6 36.9999V38.1999C22.6 38.5311 22.3311 38.8 21.9999 38.8ZM22.6 41.8001V43.0001C22.6 43.3313 22.3311 43.5999 21.9999 43.5999C21.6687 43.5999 21.4001 43.3313 21.4001 43.0001V41.8001C21.4001 41.4689 21.6687 41.2 21.9999 41.2C22.3311 41.2 22.6 41.4689 22.6 41.8001ZM21.9999 34.0001C21.6687 34.0001 21.4001 33.7312 21.4001 33.4V32.2C21.4001 31.8687 21.6687 31.6001 21.9999 31.6001C22.3311 31.6001 22.6 31.8687 22.6 32.2V33.4C22.6 33.7312 22.3311 34.0001 21.9999 34.0001ZM21.9999 29.1999C21.6687 29.1999 21.4001 28.9313 21.4001 28.6V27.4001C21.4001 27.0688 21.6687 26.7999 21.9999 26.7999C22.3311 26.7999 22.6 27.0688 22.6 27.4001V28.6C22.6 28.9313 22.3311 29.1999 21.9999 29.1999ZM21.4001 21.3999H26.2V23.8001H21.4001V21.3999ZM28.5999 43.0001H37.0001V47.8H28.5999V43.0001ZM45.4 47.8V31.6001H48.4001V47.8H45.4Z" fill="white"/>
</g>
<path d="M29.8004 18.9999H34.6006C35.9241 18.9999 37.0005 17.9235 37.0005 16.5999C37.0005 15.2764 35.9241 14.2 34.6006 14.2C34.4943 14.2 34.3885 14.2071 34.2836 14.2217C33.8653 13.4812 33.0751 13 32.2003 13C31.3255 13 30.5353 13.4812 30.1173 14.2217C30.0121 14.2071 29.9061 14.2 29.8004 14.2C28.4768 14.2 27.4004 15.2764 27.4004 16.5999C27.4004 17.9235 28.4768 18.9999 29.8004 18.9999Z" fill="white"/>
<path d="M31.6009 44.7998H30.4009C30.0697 44.7998 29.8008 45.0687 29.8008 45.3999C29.8008 45.7312 30.0697 45.9998 30.4009 45.9998H31.6009C31.9321 45.9998 32.2007 45.7312 32.2007 45.3999C32.2007 45.0687 31.9321 44.7998 31.6009 44.7998Z" fill="white"/>
<path d="M35.2005 44.7998H34.0005C33.6693 44.7998 33.4004 45.0687 33.4004 45.3999C33.4004 45.7312 33.6693 45.9998 34.0005 45.9998H35.2005C35.5317 45.9998 35.8006 45.7312 35.8006 45.3999C35.8006 45.0687 35.5317 44.7998 35.2005 44.7998Z" fill="white"/>
<path d="M35.1995 40.5997C35.5307 40.5997 35.7996 40.3308 35.7996 39.9995V30.9995C35.7996 30.6683 35.5307 30.3994 35.1995 30.3994C34.8682 30.3994 34.5996 30.6683 34.5996 30.9995V39.9995C34.5996 40.3308 34.8682 40.5997 35.1995 40.5997Z" fill="white"/>
<path d="M30.4009 40.0001C30.7321 40.0001 31.0008 39.7312 31.0008 39.4V35.8C31.0008 35.4688 30.7321 35.2002 30.4009 35.2002C30.0697 35.2002 29.8008 35.4688 29.8008 35.8V39.4C29.8008 39.7312 30.0697 40.0001 30.4009 40.0001Z" fill="white"/>
</g>
<defs>
<filter id="filter0_d_1456_425" x="12" y="13" width="44" height="44" filterUnits="userSpaceOnUse" color-interpolation-filters="sRGB">
<feFlood flood-opacity="0" result="BackgroundImageFix"/>
<feColorMatrix in="SourceAlpha" type="matrix" values="0 0 0 0 0 0 0 0 0 0 0 0 0 0 0 0 0 0 127 0" result="hardAlpha"/>
<feOffset dy="4"/>
<feGaussianBlur stdDeviation="2"/>
<feComposite in2="hardAlpha" operator="out"/>
<feColorMatrix type="matrix" values="0 0 0 0 0 0 0 0 0 0 0 0 0 0 0 0 0 0 0.25 0"/>
<feBlend mode="normal" in2="BackgroundImageFix" result="effect1_dropShadow_1456_425"/>
<feBlend mode="normal" in="SourceGraphic" in2="effect1_dropShadow_1456_425" result="shape"/>
</filter>
<filter id="filter1_d_1456_425" x="12" y="13" width="44" height="44" filterUnits="userSpaceOnUse" color-interpolation-filters="sRGB">
<feFlood flood-opacity="0" result="BackgroundImageFix"/>
<feColorMatrix in="SourceAlpha" type="matrix" values="0 0 0 0 0 0 0 0 0 0 0 0 0 0 0 0 0 0 127 0" result="hardAlpha"/>
<feOffset dy="4"/>
<feGaussianBlur stdDeviation="2"/>
<feComposite in2="hardAlpha" operator="out"/>
<feColorMatrix type="matrix" values="0 0 0 0 0 0 0 0 0 0 0 0 0 0 0 0 0 0 0.25 0"/>
<feBlend mode="normal" in2="BackgroundImageFix" result="effect1_dropShadow_1456_425"/>
<feBlend mode="normal" in="SourceGraphic" in2="effect1_dropShadow_1456_425" result="shape"/>
</filter>
<clipPath id="clip0_1456_425">
<rect width="36" height="36" fill="white" transform="translate(16 13)"/>
</clipPath>
</defs>
</svg>
