<svg width="65" height="65" viewBox="0 0 65 65" fill="none" xmlns="http://www.w3.org/2000/svg">
<circle cx="32.5" cy="32.5" r="32.5" fill="#0A4D7C"/>
<g clip-path="url(#clip0_1456_427)">
<g filter="url(#filter0_d_1456_427)">
<path d="M42.1752 41.3289H24.3323C23.8239 41.3289 23.4116 40.9147 23.4116 40.4063C23.4116 39.8998 23.8239 39.4855 24.3323 39.4855H42.1751C42.6835 39.4855 43.0959 39.8998 43.0959 40.4063C43.096 40.9146 42.6835 41.3289 42.1752 41.3289ZM16.3223 18.001V23.1527C16.3223 23.9059 16.9342 24.5178 17.6874 24.5178H21.1143C21.5907 24.5178 22.0238 24.2768 22.2762 23.8719L23.9652 21.1416C24.129 20.8761 24.4133 20.7179 24.7259 20.7179H31.2635L28.6575 15.5059H18.8172C17.4407 15.5061 16.3223 16.6245 16.3223 18.001ZM36.2684 15.5061H30.2392L32.8452 20.7181H33.6662L36.2684 15.5061ZM50.1852 18.001C50.1852 16.6245 49.0668 15.5061 47.6903 15.5061H37.85L35.2459 20.7181H41.7797C42.0904 20.7181 42.3747 20.8763 42.5386 21.1418L44.2294 23.8721C44.4798 24.277 44.9148 24.518 45.3913 24.518H48.82C49.5732 24.518 50.1851 23.9061 50.1851 23.1529L50.1852 18.001ZM50.1852 50.7643C50.1852 50.6344 50.0798 50.529 49.9498 50.529H48.6243V24.9886H46.0861V50.529H20.4196V24.9886H17.8813V50.529H16.5576C16.4277 50.529 16.3223 50.6344 16.3223 50.7643C16.3223 50.8943 16.4277 50.9997 16.5576 50.9997H49.9498C50.0798 50.9997 50.1852 50.8943 50.1852 50.7643ZM33.2537 44.2267C34.7375 44.2267 35.9841 43.1892 36.3041 41.7996H30.2033C30.5235 43.1892 31.77 44.2267 33.2537 44.2267ZM41.6441 39.0147H24.8633C27.2527 36.6779 26.7904 34.1057 27.6464 30.3889C28.0512 27.9957 29.9003 26.1749 32.2125 25.7492C31.8567 25.4517 31.6307 25.0055 31.6307 24.5065C31.6307 23.3598 32.6306 22.987 32.8923 22.9192L29.1847 15.5061H29.7119L33.2556 22.5916L36.7956 15.5061H37.3228L33.6172 22.9212C33.8469 22.9757 34.8768 23.3317 34.8768 24.5067C34.8768 25.0056 34.6509 25.452 34.295 25.7494C36.6073 26.1749 38.4563 27.9957 38.8612 30.389C39.7188 34.1131 39.2538 36.6769 41.6441 39.0147ZM34.4062 24.5065C34.4062 23.8719 33.8884 23.356 33.2537 23.356C32.6192 23.356 32.1013 23.8719 32.1013 24.5065C32.1013 25.1277 32.6019 25.6533 33.2537 25.6533C33.9067 25.6533 34.4062 25.1267 34.4062 24.5065Z" fill="white"/>
</g>
</g>
<defs>
<filter id="filter0_d_1456_427" x="12.3223" y="15.5059" width="41.8628" height="43.4939" filterUnits="userSpaceOnUse" color-interpolation-filters="sRGB">
<feFlood flood-opacity="0" result="BackgroundImageFix"/>
<feColorMatrix in="SourceAlpha" type="matrix" values="0 0 0 0 0 0 0 0 0 0 0 0 0 0 0 0 0 0 127 0" result="hardAlpha"/>
<feOffset dy="4"/>
<feGaussianBlur stdDeviation="2"/>
<feComposite in2="hardAlpha" operator="out"/>
<feColorMatrix type="matrix" values="0 0 0 0 0 0 0 0 0 0 0 0 0 0 0 0 0 0 0.25 0"/>
<feBlend mode="normal" in2="BackgroundImageFix" result="effect1_dropShadow_1456_427"/>
<feBlend mode="normal" in="SourceGraphic" in2="effect1_dropShadow_1456_427" result="shape"/>
</filter>
<clipPath id="clip0_1456_427">
<rect width="37" height="37" fill="white" transform="translate(14 14)"/>
</clipPath>
</defs>
</svg>
