<svg width="22" height="22" viewBox="0 0 22 22" fill="none" xmlns="http://www.w3.org/2000/svg">
<path d="M14.9992 10.6391C15.9266 9.65388 16.5 8.33181 16.5 6.875C16.5 3.84244 14.0326 1.375 11 1.375C7.96744 1.375 5.5 3.84244 5.5 6.875C5.5 8.33181 6.07337 9.65388 7.00081 10.6391C4.25219 12.1729 2.75 15.422 2.75 19.9375C2.75 20.3177 3.058 20.625 3.4375 20.625H18.5625C18.9427 20.625 19.25 20.3177 19.25 19.9375C19.25 15.4213 17.7478 12.1729 14.9992 10.6391ZM11 2.75C13.2749 2.75 15.125 4.60006 15.125 6.875C15.125 9.14994 13.2749 11 11 11C8.72506 11 6.875 9.14994 6.875 6.875C6.875 4.60006 8.72506 2.75 11 2.75ZM4.13738 19.25C4.24531 16.3391 5.09163 12.9298 8.18194 11.5892C9.00694 12.0849 9.96944 12.375 11 12.375C12.0306 12.375 12.9931 12.0849 13.8181 11.5892C16.9077 12.9291 17.7547 16.3391 17.8619 19.25H4.13738Z" fill="url(#paint0_linear_602_907)"/>
<defs>
<linearGradient id="paint0_linear_602_907" x1="19.25" y1="11" x2="2.75" y2="11" gradientUnits="userSpaceOnUse">
<stop stop-color="#011536"/>
<stop offset="1" stop-color="#0A4D7C"/>
</linearGradient>
</defs>
</svg>
