<svg width="56" height="46" viewBox="0 0 56 46" fill="none" xmlns="http://www.w3.org/2000/svg">
<path d="M32.0253 46V33.271C32.0253 26.5992 32.8215 21.1272 34.4139 16.855C36.0653 12.5827 38.8373 8.9542 42.7299 5.96947C46.6224 2.98473 51.0458 0.994911 56 0V10.1832C56 10.1832 43.0727 14 43.0727 23.1718H56V46H32.0253ZM0 46V33.271C0 26.5992 0.796209 21.1272 2.38863 16.855C4.04002 12.5827 6.81201 8.9542 10.7046 5.96947C14.6561 2.98473 19.0795 0.994911 23.9747 0V10.1832C23.9747 10.1832 11.0474 13 11.0474 23.1718H23.9747V46H0Z" fill="#0A4D7C"/>
</svg>
