<svg width="17" height="17" viewBox="0 0 17 17" fill="none" xmlns="http://www.w3.org/2000/svg">
<g clip-path="url(#clip0_602_898)">
<path d="M11.527 10.0007L9.15668 8.22298V4.60178C9.15668 4.23767 8.86237 3.94336 8.49826 3.94336C8.13416 3.94336 7.83984 4.23767 7.83984 4.60178V8.55222C7.83984 8.75961 7.93729 8.95517 8.10321 9.07895L10.7368 11.0542C10.8553 11.1431 10.9936 11.1859 11.1312 11.1859C11.332 11.1859 11.5295 11.0956 11.6586 10.9218C11.8772 10.6314 11.818 10.2186 11.527 10.0007Z" fill="url(#paint0_linear_602_898)"/>
<path d="M8.5 0C3.81281 0 0 3.81281 0 8.5C0 13.1872 3.81281 17 8.5 17C13.1872 17 17 13.1872 17 8.5C17 3.81281 13.1872 0 8.5 0ZM8.5 15.6832C4.5397 15.6832 1.3168 12.4603 1.3168 8.5C1.3168 4.5397 4.5397 1.3168 8.5 1.3168C12.461 1.3168 15.6832 4.5397 15.6832 8.5C15.6832 12.4603 12.4603 15.6832 8.5 15.6832Z" fill="url(#paint1_linear_602_898)"/>
</g>
<defs>
<linearGradient id="paint0_linear_602_898" x1="11.7906" y1="7.56461" x2="7.83984" y2="7.56461" gradientUnits="userSpaceOnUse">
<stop stop-color="#011536"/>
<stop offset="1" stop-color="#0A4D7C"/>
</linearGradient>
<linearGradient id="paint1_linear_602_898" x1="17" y1="8.5" x2="9.9428e-08" y2="8.5" gradientUnits="userSpaceOnUse">
<stop stop-color="#011536"/>
<stop offset="1" stop-color="#0A4D7C"/>
</linearGradient>
<clipPath id="clip0_602_898">
<rect width="17" height="17" fill="white"/>
</clipPath>
</defs>
</svg>
