<svg width="27" height="19" viewBox="0 0 27 19" fill="none" xmlns="http://www.w3.org/2000/svg">
<path d="M25.9453 8.4375H1.05469C0.472184 8.4375 0 8.90968 0 9.49219C0 10.0747 0.472184 10.5469 1.05469 10.5469H25.9453C26.5278 10.5469 27 10.0747 27 9.49219C27 8.90968 26.5278 8.4375 25.9453 8.4375Z" fill="url(#paint0_linear_739_2863)"/>
<path d="M25.9453 0H1.05469C0.472184 0 0 0.472184 0 1.05469C0 1.63719 0.472184 2.10938 1.05469 2.10938H25.9453C26.5278 2.10938 27 1.63719 27 1.05469C27 0.472184 26.5278 0 25.9453 0Z" fill="url(#paint1_linear_739_2863)"/>
<path d="M25.9453 16.875H1.05469C0.472184 16.875 0 17.3472 0 17.9297C0 18.5122 0.472184 18.9844 1.05469 18.9844H25.9453C26.5278 18.9844 27 18.5122 27 17.9297C27 17.3472 26.5278 16.875 25.9453 16.875Z" fill="url(#paint2_linear_739_2863)"/>
<defs>
<linearGradient id="paint0_linear_739_2863" x1="27" y1="9.49219" x2="1.57916e-07" y2="9.49219" gradientUnits="userSpaceOnUse">
<stop stop-color="#011536"/>
<stop offset="1" stop-color="#0A4D7C"/>
</linearGradient>
<linearGradient id="paint1_linear_739_2863" x1="27" y1="1.05469" x2="1.57916e-07" y2="1.05469" gradientUnits="userSpaceOnUse">
<stop stop-color="#011536"/>
<stop offset="1" stop-color="#0A4D7C"/>
</linearGradient>
<linearGradient id="paint2_linear_739_2863" x1="27" y1="17.9297" x2="1.57916e-07" y2="17.9297" gradientUnits="userSpaceOnUse">
<stop stop-color="#011536"/>
<stop offset="1" stop-color="#0A4D7C"/>
</linearGradient>
</defs>
</svg>
