<svg width="19" height="19" viewBox="0 0 19 19" fill="none" xmlns="http://www.w3.org/2000/svg">
<path d="M10.7899 9.07531L10.7192 9.14602L10.7899 9.21673L17.6482 16.075C18.0825 16.5092 18.0824 17.2142 17.6484 17.6482C17.2141 18.0825 16.5092 18.0825 16.075 17.6482L9.21671 10.79L9.146 10.7192L9.07529 10.79L2.217 17.6482C1.78277 18.0825 1.07785 18.0825 0.643621 17.6482C0.209556 17.2142 0.209539 16.5092 0.643778 16.075L7.50206 9.21673L7.57277 9.14602L7.50206 9.07531L0.643621 2.21687C0.209556 1.7828 0.209538 1.07788 0.643777 0.64364C1.07785 0.209567 1.78277 0.209568 2.21685 0.643641L9.07529 7.50208L9.146 7.57279L9.21671 7.50208L16.0751 0.643641C16.5092 0.209568 17.2141 0.209567 17.6482 0.64364C18.0825 1.07788 18.0824 1.7828 17.6484 2.21687L10.7899 9.07531Z" fill="url(#paint0_linear_731_1268)" stroke="white" stroke-width="0.2"/>
<defs>
<linearGradient id="paint0_linear_731_1268" x1="19" y1="9.00001" x2="-0.500002" y2="9.00001" gradientUnits="userSpaceOnUse">
<stop stop-color="#011536"/>
<stop offset="1" stop-color="#0A4D7C"/>
</linearGradient>
</defs>
</svg>
