<svg width="1440" height="536" viewBox="0 0 1440 536" fill="none" xmlns="http://www.w3.org/2000/svg">
<path opacity="0.3" d="M-328 535.069L-328 536H1768V82.2343C1572.36 28.625 1366.4 0 1153.76 0C590.386 0 73.9142 200.925 -328 535.069Z" fill="url(#paint0_linear_1253_414)"/>
<path opacity="0.3" d="M0 431.361L0 432H1440V120.459C1305.59 83.653 1164.09 64 1018 64C630.952 64 276.124 201.948 0 431.361Z" fill="url(#paint1_linear_1253_414)"/>
<path opacity="0.3" d="M0 478.361L0 479H1440V167.459C1305.59 130.653 1164.09 111 1018 111C630.952 111 276.124 248.948 0 478.361Z" fill="url(#paint2_linear_1253_414)"/>
<defs>
<linearGradient id="paint0_linear_1253_414" x1="720" y1="0" x2="720" y2="536" gradientUnits="userSpaceOnUse">
<stop stop-color="#0A4D7C" stop-opacity="0"/>
<stop offset="1" stop-color="#0A4D7C"/>
</linearGradient>
<linearGradient id="paint1_linear_1253_414" x1="720" y1="64" x2="720" y2="432" gradientUnits="userSpaceOnUse">
<stop stop-color="#0A4D7C" stop-opacity="0"/>
<stop offset="1" stop-color="#0A4D7C"/>
</linearGradient>
<linearGradient id="paint2_linear_1253_414" x1="720" y1="111" x2="720" y2="479" gradientUnits="userSpaceOnUse">
<stop stop-color="#0A4D7C" stop-opacity="0"/>
<stop offset="1" stop-color="#0A4D7C"/>
</linearGradient>
</defs>
</svg>
