<svg width="17" height="17" viewBox="0 0 17 17" fill="none" xmlns="http://www.w3.org/2000/svg">
<path d="M16.1652 15.201L11.5114 10.5472C12.4129 9.43376 12.9556 8.01886 12.9556 6.47783C12.9556 2.90616 10.0495 0 6.4778 0C2.90613 0 0 2.90613 0 6.4778C0 10.0495 2.90616 12.9556 6.47783 12.9556C8.01886 12.9556 9.43376 12.4129 10.5472 11.5114L15.201 16.1652C15.334 16.2982 15.5086 16.365 15.6831 16.365C15.8577 16.365 16.0323 16.2982 16.1652 16.1652C16.4318 15.8986 16.4318 15.4677 16.1652 15.201ZM6.47783 11.5919C3.65758 11.5919 1.36376 9.29804 1.36376 6.4778C1.36376 3.65755 3.65758 1.36373 6.47783 1.36373C9.29808 1.36373 11.5919 3.65755 11.5919 6.4778C11.5919 9.29804 9.29804 11.5919 6.47783 11.5919Z" fill="url(#paint0_linear_594_612)"/>
<defs>
<linearGradient id="paint0_linear_594_612" x1="16.3652" y1="8.18251" x2="9.57152e-08" y2="8.18251" gradientUnits="userSpaceOnUse">
<stop stop-color="#011536"/>
<stop offset="1" stop-color="#0A4D7C"/>
</linearGradient>
</defs>
</svg>
