<svg width="276" height="72" viewBox="0 0 276 72" fill="none" xmlns="http://www.w3.org/2000/svg">
<g filter="url(#filter0_d_493_1345)">
<path fill-rule="evenodd" clip-rule="evenodd" d="M11.3369 46.9138C6.82513 42.3996 4 36.1135 4 29.1946C4 21.5163 7.45762 14.6396 12.8971 10.041L17.2823 16.3693C13.8247 19.5334 11.6321 24.132 11.6321 29.1946C11.6321 38.8136 19.4328 46.5763 29.0045 46.5763C38.6184 46.5763 46.377 38.7714 46.377 29.1946C46.377 24.132 44.1843 19.5756 40.7267 16.3693L45.112 10.041C50.5514 14.6396 54.009 21.5163 54.009 29.1946C54.009 36.1135 51.1839 42.3996 46.6721 46.9138L28.9624 64.0001L11.3369 46.9138Z" fill="#011536"/>
<path fill-rule="evenodd" clip-rule="evenodd" d="M29.0467 27.6757L12.8971 0L29.0467 8.26895L45.1964 0L29.0467 27.6757Z" fill="#ED1C24"/>
<path d="M162.629 26.3681C164.147 26.4524 167.183 26.579 168.87 26.579C175.532 26.579 180.17 24.9336 180.17 17.3819C180.17 9.6614 174.942 8.35355 168.532 8.35355C165.328 8.35355 162.039 8.60668 159.382 9.07076V38.6027H162.671V26.3681H162.629ZM162.629 11.4755C164.779 11.1802 166.972 11.0958 168.617 11.0958C174.646 11.0958 176.839 12.9099 176.839 17.4241C176.839 22.6555 173.845 23.9211 168.49 23.9211C166.761 23.9211 165.032 23.9211 162.629 23.668V11.4755ZM183.965 32.6963C183.965 35.8605 184.766 37.9277 186.284 39.6153L188.941 38.2652C187.718 36.7042 187.128 34.9323 187.128 32.4854V6.87695H184.007V32.6963H183.965ZM192.736 18.6897C195.181 18.3522 197.753 18.0147 200.368 18.0147C205.343 18.0147 206.608 19.5757 206.608 23.2883V24.3008C203.108 24.4274 199.609 24.5539 196.826 24.9758C192.736 25.6087 191.049 28.0978 191.049 32.0635C191.049 37.0418 193.832 38.898 199.988 38.898C203.614 38.898 206.861 38.3918 209.56 37.0839C209.644 35.8183 209.686 34.5104 209.686 33.1604V22.3601C209.686 16.6647 205.849 15.4412 200.958 15.4412C197.711 15.4412 195.055 15.8209 192.44 16.2428L192.736 18.6897ZM194.211 32.0213C194.211 28.8572 195.35 27.8025 197.964 27.2962C200.368 26.7899 204.036 26.7056 206.65 26.6634V31.7682C206.65 32.8651 206.608 34.2995 206.566 35.3542C204.584 36.1136 202.35 36.3667 200.368 36.3667C196.067 36.4089 194.211 35.523 194.211 32.0213ZM229.209 35.7339C228.113 35.9449 226.511 36.2402 225.372 36.2402C218.077 36.2402 217.571 32.9073 217.571 26.9587C217.571 20.6304 218.288 18.1413 225.414 18.1413C226.679 18.1413 228.24 18.3522 229.252 18.521L229.504 16.1162C228.071 15.7365 226.384 15.4412 224.402 15.4412C216.138 15.4412 214.451 19.4491 214.451 26.9165C214.451 33.4979 215.885 38.898 223.601 38.898C225.963 38.898 227.776 38.6027 229.589 38.223L229.209 35.7339ZM241.353 38.898C245.696 38.898 248.311 38.5605 250.925 38.1387L250.63 35.6073C248.268 35.9449 245.528 36.2402 242.534 36.2402C236.757 36.2402 235.323 33.8354 234.944 29.1947L240.383 28.9837C243.588 28.8572 249.027 28.3509 251.642 27.8868C251.684 27.2118 251.726 26.3681 251.726 25.7352C251.726 19.4491 249.618 15.4412 241.859 15.4412C234.354 15.4412 231.866 18.8585 231.866 27.1696C231.866 33.9198 233.848 38.898 241.353 38.898ZM234.944 26.8321C234.944 20.9257 236.167 17.9725 241.901 17.9725C246.919 17.9725 248.606 20.4617 248.606 24.343C248.606 24.8071 248.606 25.4821 248.564 25.9462C246.455 26.1993 242.998 26.4946 241.016 26.579L234.944 26.8321ZM264.713 18.0569C266.822 18.0569 268.761 18.31 270.448 18.6054L270.743 16.2006C268.34 15.6944 266.189 15.4412 263.28 15.4412C258.641 15.4412 255.352 16.7913 255.352 21.5586C255.352 26.2837 258.894 27.1275 262.521 28.1822C266.105 29.2369 268.129 29.7431 268.129 32.6541C268.129 36.2402 264.165 36.2402 261.466 36.2402C259.569 36.2402 257.461 36.0292 255.563 35.6917L255.268 38.1387C257.671 38.6449 260.075 38.898 262.563 38.898C267.581 38.898 271.333 37.548 271.333 32.4854C271.333 28.2665 268.761 27.0853 264.123 25.6509C260.834 24.6383 258.473 24.3008 258.473 21.2632C258.473 18.1413 262.057 18.0569 264.713 18.0569Z" fill="#011536"/>
<path d="M76.1042 12.1505C75.05 9.49261 73.532 8.35352 71.7611 8.35352C69.1468 8.35352 68.0504 9.70355 67.9239 12.7833L66.7433 38.6027H72.3935L73.1104 17.2131H73.1525L78.6341 31.8525C79.351 33.7088 80.4051 34.637 82.0074 34.637C83.5676 34.637 84.6639 33.7088 85.3386 31.8525L90.6937 17.1709H90.7358L91.4526 38.6027H97.3137L96.1753 12.8255C96.0488 9.61917 95.0368 8.3957 92.3381 8.3957C90.6093 8.3957 88.9648 9.70355 87.9107 12.277L81.9653 27.1274L76.1042 12.1505ZM106.506 38.6027L108.741 31.1775H118.945L121.222 38.6027H127.673L118.945 12.5302C117.975 9.70355 116.289 8.35352 114.054 8.35352C111.735 8.35352 110.132 9.61917 109.12 12.5302L100.223 38.6027H106.506ZM110.174 26.5368L113.843 14.4287L117.553 26.5368H110.174ZM142.938 18.3522L137.034 8.69102H130.077L139.438 23.3726L129.697 38.6027H136.444L142.642 28.3509L149.052 38.6027H156.051L146.226 23.2039L155.503 8.69102H148.925L142.938 18.3522Z" fill="#ED1C24"/>
<path d="M68.8516 45.7326C70.7069 45.7326 70.7491 46.7873 70.7491 48.1795C70.7491 49.5717 70.7491 50.6264 68.8516 50.6264C68.5986 50.6264 68.3456 50.5842 68.1769 50.5842V45.8169C68.3456 45.7326 68.5564 45.7326 68.8516 45.7326ZM66.7433 51.5546C67.3336 51.6811 68.1769 51.7655 69.0624 51.7655C71.7189 51.7655 72.1827 50.5842 72.1827 48.1795C72.1827 45.7747 71.7189 44.5513 69.0624 44.5513C68.2191 44.5513 67.3758 44.6357 66.7433 44.7622V51.5546ZM76.8632 45.6482C77.4535 45.6482 77.6643 45.4372 77.6643 44.8888C77.6643 44.3403 77.4535 44.1294 76.8632 44.1294C76.2728 44.1294 76.062 44.3403 76.062 44.8888C76.062 45.4372 76.2728 45.6482 76.8632 45.6482ZM76.1885 51.6811H77.5378V46.281H76.1885V51.6811ZM81.7544 53.5374C82.3026 53.6218 83.1881 53.7484 83.9892 53.7484C85.2121 53.7484 86.224 53.4109 86.224 51.9765V47.7154C86.224 47.3357 86.224 47.0404 86.1819 46.7029C85.5915 46.3654 84.7482 46.1966 84.0314 46.1966C82.2604 46.1966 81.4593 46.8295 81.4593 48.8967C81.4593 50.9639 82.2183 51.5968 83.8627 51.5968C84.2001 51.5968 84.5796 51.5546 84.8747 51.4702V51.639C84.8747 52.314 84.5796 52.6515 83.8206 52.6515C83.1881 52.6515 82.3869 52.5671 81.8809 52.4827L81.7544 53.5374ZM83.9892 47.2513C84.2844 47.2513 84.6217 47.2935 84.8326 47.3779C84.8747 47.5889 84.8747 47.842 84.8747 48.0951V50.4155C84.6639 50.4999 84.3687 50.5421 84.1157 50.5421C82.8508 50.5421 82.8086 49.8248 82.8086 48.8967C82.7664 48.0951 82.8508 47.2513 83.9892 47.2513ZM90.9888 45.6482C91.5791 45.6482 91.79 45.4372 91.79 44.8888C91.79 44.3403 91.5791 44.1294 90.9888 44.1294C90.3985 44.1294 90.1877 44.3403 90.1877 44.8888C90.1877 45.4372 90.3563 45.6482 90.9888 45.6482ZM90.3142 51.6811H91.6635V46.281H90.3142V51.6811ZM96.2174 44.9732V46.281H95.3319V47.2935H96.2174V50.2467C96.2174 51.2593 96.6812 51.7655 97.8197 51.7655C98.1149 51.7655 98.4522 51.7233 98.7474 51.6811L98.6631 50.7108C98.4944 50.7108 98.3679 50.7108 98.1992 50.7108C97.7354 50.7108 97.5667 50.5421 97.5667 50.078V47.2935H98.6631V46.281H97.5667V44.7622L96.2174 44.9732ZM104.355 51.7655C105.325 51.7655 106.126 51.639 106.759 51.2593C106.801 50.9217 106.801 50.5842 106.801 50.2467V47.9686C106.801 46.5763 105.789 46.2388 104.608 46.2388C103.807 46.2388 103.048 46.3654 102.5 46.4498L102.627 47.4623C103.175 47.3779 103.892 47.3357 104.524 47.3357C105.241 47.3357 105.536 47.631 105.536 48.2217C104.946 48.2639 104.355 48.2639 103.807 48.3482C102.711 48.517 102.332 49.1076 102.332 50.078C102.289 51.1749 102.88 51.7655 104.355 51.7655ZM105.536 49.867C105.536 50.1202 105.536 50.3733 105.494 50.5842C105.199 50.7108 104.819 50.7108 104.524 50.7108C103.934 50.7108 103.596 50.5421 103.596 49.9936C103.596 49.4452 103.765 49.2764 104.271 49.1498C104.651 49.0655 105.114 49.0655 105.536 49.0233V49.867ZM110.807 50.3311C110.807 51.0905 110.976 51.5546 111.355 51.9765L112.536 51.428C112.283 51.0483 112.156 50.7108 112.156 50.2467V44.2138H110.807V50.3311ZM123.668 45.4372C123.415 44.8044 123.035 44.5513 122.656 44.5513C122.023 44.5513 121.77 44.8888 121.728 45.606L121.433 51.7233H122.782L122.951 46.6607L124.258 50.1202C124.427 50.5842 124.68 50.7952 125.059 50.7952C125.439 50.7952 125.692 50.5842 125.86 50.1202L127.125 46.6607L127.294 51.7233H128.685L128.432 45.606C128.39 44.8466 128.179 44.5513 127.505 44.5513C127.083 44.5513 126.704 44.8466 126.451 45.4794L125.059 48.9811L123.668 45.4372ZM134.589 51.7655C135.558 51.7655 136.36 51.639 136.992 51.2593C137.034 50.9217 137.034 50.5842 137.034 50.2467V47.9686C137.034 46.5763 136.022 46.2388 134.842 46.2388C134.04 46.2388 133.281 46.3654 132.733 46.4498L132.86 47.4623C133.408 47.3779 134.125 47.3357 134.757 47.3357C135.474 47.3357 135.769 47.631 135.769 48.2217C135.179 48.2639 134.589 48.2639 134.04 48.3482C132.944 48.517 132.565 49.1076 132.565 50.078C132.48 51.1749 133.071 51.7655 134.589 51.7655ZM135.727 49.867C135.727 50.1202 135.727 50.3733 135.685 50.5842C135.39 50.7108 135.01 50.7108 134.715 50.7108C134.125 50.7108 133.787 50.5421 133.787 49.9936C133.787 49.4452 133.956 49.2764 134.462 49.1498C134.842 49.0655 135.305 49.0655 135.727 49.0233V49.867ZM142.432 51.6811V48.1795C142.432 47.9264 142.432 47.6732 142.474 47.4623C142.685 47.3357 143.064 47.2935 143.359 47.2935C143.486 47.2935 143.654 47.2935 143.739 47.2935L143.865 46.1966C143.697 46.1966 143.528 46.1966 143.317 46.1966C142.6 46.1966 141.757 46.3232 141.167 46.7029C141.124 47.0404 141.124 47.3779 141.124 47.7154V51.6811H142.432ZM148.883 44.1716H147.534V51.6811H148.883V48.9811L150.738 51.6811H152.383L150.232 48.7701L152.256 46.281H150.738L148.883 48.6436V44.1716ZM157.822 51.7655C158.876 51.7655 159.635 51.639 160.183 51.5546L160.057 50.5421C159.509 50.6264 158.834 50.6686 158.117 50.6686C157.316 50.6686 156.895 50.4577 156.852 49.6139L157.738 49.5717C158.497 49.5295 159.677 49.403 160.31 49.3186C160.31 49.192 160.31 49.0233 160.31 48.8967C160.31 47.2513 159.888 46.2388 157.949 46.2388C156.136 46.2388 155.545 47.0404 155.545 49.0233C155.503 50.5842 156.009 51.7655 157.822 51.7655ZM156.81 48.6858C156.81 47.842 156.937 47.2092 157.949 47.2092C158.708 47.2092 158.961 47.5889 158.961 48.3061C158.961 48.3482 158.961 48.4748 158.961 48.517C158.665 48.5592 158.117 48.6014 157.738 48.6436L156.81 48.6858ZM164.737 44.9732V46.281H163.852V47.2935H164.737V50.2467C164.737 51.2593 165.201 51.7655 166.34 51.7655C166.635 51.7655 166.972 51.7233 167.267 51.6811L167.183 50.7108C167.014 50.7108 166.888 50.7108 166.719 50.7108C166.255 50.7108 166.087 50.5421 166.087 50.078V47.2935H167.183V46.281H166.087V44.7622L164.737 44.9732ZM171.695 45.6482C172.285 45.6482 172.496 45.4372 172.496 44.8888C172.496 44.3403 172.285 44.1294 171.695 44.1294C171.104 44.1294 170.894 44.3403 170.894 44.8888C170.894 45.4372 171.062 45.6482 171.695 45.6482ZM171.02 51.6811H172.369V46.281H171.02V51.6811ZM177.851 48.1795C177.851 47.9264 177.851 47.6732 177.893 47.4623C178.104 47.3779 178.441 47.3357 178.737 47.3357C179.664 47.3357 179.791 47.6732 179.791 48.4326V51.7655H181.14V48.3482C181.14 47.167 180.929 46.3232 178.99 46.3232C178.02 46.3232 177.176 46.492 176.544 46.8295C176.502 47.167 176.502 47.5045 176.502 47.842V51.8077H177.851V48.1795ZM185.314 53.5374C185.863 53.6218 186.748 53.7484 187.549 53.7484C188.772 53.7484 189.784 53.4109 189.784 51.9765V47.7154C189.784 47.3357 189.784 47.0404 189.742 46.7029C189.152 46.3654 188.308 46.1966 187.591 46.1966C185.82 46.1966 185.019 46.8295 185.019 48.8967C185.019 50.9639 185.778 51.5968 187.423 51.5968C187.76 51.5968 188.14 51.5546 188.435 51.4702V51.639C188.435 52.314 188.14 52.6515 187.381 52.6515C186.748 52.6515 185.947 52.5671 185.441 52.4827L185.314 53.5374ZM187.549 47.2513C187.844 47.2513 188.182 47.2935 188.393 47.3779C188.435 47.5889 188.435 47.842 188.435 48.0951V50.4155C188.224 50.4999 187.929 50.5421 187.676 50.5421C186.411 50.5421 186.369 49.8248 186.369 48.8967C186.369 48.0951 186.453 47.2513 187.549 47.2513ZM201.211 45.4372C200.958 44.8044 200.579 44.5513 200.199 44.5513C199.567 44.5513 199.314 44.8888 199.271 45.606L198.976 51.7233H200.326L200.494 46.6607L201.801 50.1202C201.97 50.5842 202.223 50.7952 202.603 50.7952C202.982 50.7952 203.235 50.5842 203.404 50.1202L204.669 46.6607L204.837 51.7233H206.229L205.976 45.606C205.934 44.8466 205.723 44.5513 205.048 44.5513C204.627 44.5513 204.247 44.8466 203.994 45.4794L202.603 48.9811L201.211 45.4372ZM212.132 51.7655C213.102 51.7655 213.903 51.639 214.536 51.2593C214.578 50.9217 214.578 50.5842 214.578 50.2467V47.9686C214.578 46.5763 213.566 46.2388 212.385 46.2388C211.584 46.2388 210.825 46.3654 210.277 46.4498L210.403 47.4623C210.952 47.3779 211.668 47.3357 212.301 47.3357C213.018 47.3357 213.313 47.631 213.313 48.2217C212.722 48.2639 212.132 48.2639 211.584 48.3482C210.488 48.517 210.108 49.1076 210.108 50.078C210.066 51.1749 210.656 51.7655 212.132 51.7655ZM213.271 49.867C213.271 50.1202 213.271 50.3733 213.228 50.5842C212.933 50.7108 212.554 50.7108 212.259 50.7108C211.668 50.7108 211.331 50.5421 211.331 49.9936C211.331 49.4452 211.5 49.2764 212.006 49.1498C212.385 49.0655 212.849 49.0655 213.271 49.0233V49.867ZM220.945 47.8842L219.849 46.281H218.288L220.102 48.8967L218.162 51.6811H219.638L220.818 49.9092L221.999 51.6811H223.559L221.577 48.8545L223.391 46.281H221.999L220.945 47.8842ZM228.029 45.6482C228.619 45.6482 228.83 45.4372 228.83 44.8888C228.83 44.3403 228.619 44.1294 228.029 44.1294C227.438 44.1294 227.228 44.3403 227.228 44.8888C227.228 45.4372 227.438 45.6482 228.029 45.6482ZM227.354 51.6811H228.703V46.281H227.354V51.6811ZM234.185 48.1795C234.185 47.9264 234.185 47.6732 234.227 47.4623C234.396 47.3779 234.691 47.3357 234.902 47.3357C235.619 47.3357 235.787 47.7154 235.787 48.4326V51.7655H237.137V48.3061C237.137 48.0529 237.137 47.7576 237.052 47.5467C237.305 47.4201 237.601 47.3779 237.811 47.3779C238.57 47.3779 238.739 47.7576 238.739 48.4748V51.8077H240.088V48.3482C240.088 47.2513 239.835 46.3232 238.107 46.3232C237.516 46.3232 236.926 46.4498 236.462 46.6185C236.167 46.4076 235.745 46.3232 235.155 46.3232C234.312 46.3232 233.468 46.492 232.878 46.8295C232.836 47.167 232.836 47.5045 232.836 47.842V51.8077H234.185V48.1795ZM244.937 45.6482C245.528 45.6482 245.739 45.4372 245.739 44.8888C245.739 44.3403 245.528 44.1294 244.937 44.1294C244.347 44.1294 244.136 44.3403 244.136 44.8888C244.136 45.4372 244.347 45.6482 244.937 45.6482ZM244.263 51.6811H245.612V46.281H244.263V51.6811ZM253.792 47.167C253.919 46.9982 253.961 46.8295 253.961 46.7029C253.961 46.4498 253.75 46.281 253.413 46.281H249.618V47.3357H252.064L249.576 50.7952C249.449 50.9639 249.407 51.1327 249.407 51.2593C249.407 51.5124 249.618 51.6811 249.955 51.6811H253.792V50.5842H251.305L253.792 47.167ZM259.822 51.7655C260.876 51.7655 261.635 51.639 262.183 51.5546L262.057 50.5421C261.509 50.6264 260.834 50.6686 260.117 50.6686C259.316 50.6686 258.894 50.4577 258.852 49.6139L259.738 49.5717C260.497 49.5295 261.677 49.403 262.31 49.3186C262.31 49.192 262.31 49.0233 262.31 48.8967C262.31 47.2513 261.888 46.2388 259.949 46.2388C258.135 46.2388 257.545 47.0404 257.545 49.0233C257.503 50.5842 258.009 51.7655 259.822 51.7655ZM258.81 48.6858C258.81 47.842 258.937 47.2092 259.949 47.2092C260.708 47.2092 260.961 47.5889 260.961 48.3061C260.961 48.3482 260.961 48.4748 260.961 48.517C260.665 48.5592 260.117 48.6014 259.738 48.6436L258.81 48.6858ZM269.436 46.3232C269.099 46.2388 268.719 46.1966 268.424 46.1966C266.779 46.1966 266.021 46.8716 266.021 48.9811C266.021 51.0905 266.779 51.7655 268.593 51.7655C269.309 51.7655 270.153 51.639 270.785 51.2593C270.827 50.9217 270.827 50.5842 270.827 50.2467V44.2138H269.478V46.3232H269.436ZM269.436 47.3779V49.8248C269.436 50.078 269.436 50.3311 269.394 50.5421C269.183 50.6264 268.846 50.6686 268.55 50.6686C267.412 50.6686 267.328 49.8248 267.328 48.9389C267.328 47.9686 267.37 47.2092 268.635 47.2092C268.93 47.2513 269.225 47.2935 269.436 47.3779Z" fill="#011536"/>
</g>
<defs>
<filter id="filter0_d_493_1345" x="0" y="0" width="275.333" height="72" filterUnits="userSpaceOnUse" color-interpolation-filters="sRGB">
<feFlood flood-opacity="0" result="BackgroundImageFix"/>
<feColorMatrix in="SourceAlpha" type="matrix" values="0 0 0 0 0 0 0 0 0 0 0 0 0 0 0 0 0 0 127 0" result="hardAlpha"/>
<feOffset dy="4"/>
<feGaussianBlur stdDeviation="2"/>
<feComposite in2="hardAlpha" operator="out"/>
<feColorMatrix type="matrix" values="0 0 0 0 0 0 0 0 0 0 0 0 0 0 0 0 0 0 0.25 0"/>
<feBlend mode="normal" in2="BackgroundImageFix" result="effect1_dropShadow_493_1345"/>
<feBlend mode="normal" in="SourceGraphic" in2="effect1_dropShadow_493_1345" result="shape"/>
</filter>
</defs>
</svg>
