<svg width="75" height="75" viewBox="0 0 75 75" fill="none" xmlns="http://www.w3.org/2000/svg">
<circle r="37.5" transform="matrix(1 0 0 -1 37.5 37.5)" fill="#0A4D7C"/>
<g filter="url(#filter0_d_493_1158)">
<path fill-rule="evenodd" clip-rule="evenodd" d="M52.1765 16.3122L54.808 17.8414C55.1802 18.0578 55.4336 18.4319 55.4964 18.8578L56.422 25.1359C56.5359 25.9085 56.002 26.6271 55.2293 26.7411C55.1233 26.7567 55.0159 26.7602 54.9091 26.7516L52.7523 26.5772C51.9738 26.5142 51.2918 27.0942 51.2288 27.8727C51.2175 28.0132 51.2272 28.1547 51.2577 28.2924L51.9712 31.5147C52.1401 32.2772 51.6588 33.0322 50.8963 33.201C50.7645 33.2302 50.6292 33.2404 50.4946 33.2312L48.3602 33.0859C47.581 33.0328 46.9064 33.6215 46.8533 34.4007C46.8441 34.536 46.8544 34.672 46.884 34.8044L47.6041 38.0347C47.774 38.797 47.2939 39.5527 46.5316 39.7226C46.3983 39.7523 46.2613 39.7626 46.125 39.753L43.7555 39.5869C42.9764 39.5323 42.3006 40.1195 42.246 40.8986C42.2411 40.9678 42.2414 41.0373 42.2467 41.1065L42.4467 43.6922C42.5069 44.4709 41.9245 45.1509 41.1458 45.2111C41.0759 45.2165 41.0056 45.2167 40.9356 45.2117L38.3202 45.024C37.5412 44.9681 36.8645 45.5543 36.8086 46.3333C36.8036 46.4023 36.8037 46.4716 36.8089 46.5407L37.0046 49.1389C37.0633 49.9176 36.4795 50.5965 35.7008 50.6552C35.6312 50.6604 35.5614 50.6605 35.4919 50.6554L34.2465 50.5647C33.7889 50.5314 33.3908 50.8754 33.3575 51.3331C33.3541 51.3803 33.3547 51.4277 33.3593 51.4749C33.3785 51.6689 33.2367 51.8416 33.0427 51.8608C32.9375 51.8711 32.8332 51.8338 32.7585 51.7591L25.0001 44.0007C24.4479 43.4485 24.4479 42.5531 25.0001 42.0009L50.4661 16.5349C50.9197 16.0813 51.6218 15.9898 52.1765 16.3122ZM23.0003 46.0005L30.3342 53.3344C30.7999 53.8001 30.8825 54.5256 30.5333 55.084L28.398 58.4989C27.5699 59.8232 25.825 60.2255 24.5007 59.3974C24.3194 59.284 24.1515 59.1505 24.0003 58.9992L18.0008 52.9998C16.8963 51.8953 16.8963 50.1046 18.0008 49.0002L21.0005 46.0005C21.5527 45.4482 22.4481 45.4482 23.0003 46.0005ZM22.6503 49.6501C22.098 49.0978 21.2027 49.0978 20.6505 49.6501C20.0983 50.2023 20.0982 51.0976 20.6505 51.6499L25.2498 56.2492C25.802 56.8014 26.6973 56.8014 27.2496 56.2492C27.8018 55.6969 27.8018 54.8016 27.2496 54.2494L22.6503 49.6501Z" fill="white"/>
</g>
<defs>
<filter id="filter0_d_493_1158" x="13.1725" y="16.1206" width="47.2649" height="51.7074" filterUnits="userSpaceOnUse" color-interpolation-filters="sRGB">
<feFlood flood-opacity="0" result="BackgroundImageFix"/>
<feColorMatrix in="SourceAlpha" type="matrix" values="0 0 0 0 0 0 0 0 0 0 0 0 0 0 0 0 0 0 127 0" result="hardAlpha"/>
<feOffset dy="4"/>
<feGaussianBlur stdDeviation="2"/>
<feComposite in2="hardAlpha" operator="out"/>
<feColorMatrix type="matrix" values="0 0 0 0 0 0 0 0 0 0 0 0 0 0 0 0 0 0 0.2 0"/>
<feBlend mode="overlay" in2="BackgroundImageFix" result="effect1_dropShadow_493_1158"/>
<feBlend mode="normal" in="SourceGraphic" in2="effect1_dropShadow_493_1158" result="shape"/>
</filter>
</defs>
</svg>
