<svg width="75" height="75" viewBox="0 0 75 75" fill="none" xmlns="http://www.w3.org/2000/svg">
<circle r="37.5" transform="matrix(1 0 0 -1 37.5 37.5)" fill="#0A4D7C"/>
<g filter="url(#filter0_d_493_1163)">
<path d="M58.0208 39.7452V36.411L54.5512 35.5046C54.4782 35.0461 54.3845 34.5877 54.2803 34.1292L57.156 31.9515L55.8849 28.8674L52.3006 29.3675C52.061 28.982 51.79 28.6382 51.5191 28.2631L53.3634 25.1685L51.0086 22.8138L47.8619 24.6267C47.4973 24.3558 47.1326 24.0953 46.7471 23.8661L47.2993 20.2193L44.2256 18.9377L41.975 21.8864C41.5478 21.7822 41.1206 21.6885 40.6934 21.6155L39.7869 18H36.4527L35.4941 21.6364C35.0774 21.6989 34.6502 21.7927 34.2334 21.8864L31.9932 18.8648L28.9091 20.1464L29.4092 23.8661C29.0133 24.1058 28.5757 24.335 28.1902 24.6163L24.9289 22.6679L22.5741 25.0227L24.533 28.3048C24.2829 28.659 24.0641 29.0341 23.8349 29.3988L20.136 28.8778L18.8648 31.962L21.876 34.223C21.7718 34.6397 21.6885 35.0669 21.6259 35.4941L18 36.4215V39.7557L21.6155 40.683C21.678 41.1206 21.7718 41.5478 21.8656 41.9854L18.9065 44.2047L20.1881 47.2785L23.8349 46.7575C24.0745 47.1534 24.3037 47.5598 24.5746 47.9349L22.7096 51.1232L25.0643 53.478L28.211 51.5817C28.5861 51.8526 28.982 52.1026 29.378 52.3423L28.9091 55.9161L31.9932 57.1873L34.1396 54.2907C34.5981 54.4053 35.0669 54.4782 35.5358 54.5512L36.4527 58H39.7869L40.6517 54.5512C41.131 54.4782 41.5999 54.3949 42.0688 54.2803L44.2256 57.1039L47.3097 55.8328L46.7887 52.3214C47.1638 52.0922 47.4973 51.8109 47.8515 51.5504L50.8731 53.3113L53.2279 50.9565L51.4775 47.9453C51.7692 47.5494 52.0505 47.1743 52.3006 46.7575L55.8223 47.2576L57.1039 44.1839L54.2699 42.0479C54.3845 41.5791 54.4782 41.1206 54.5512 40.6413L58.0208 39.7452ZM51.4045 38.7554C51.342 40.0682 51.0815 41.3603 50.6439 42.6002C50.5085 42.9753 50.3313 43.4024 50.1021 43.8817C49.5707 44.9966 48.9456 45.9552 48.1328 46.8721C48.1328 46.8721 47.8619 47.1743 47.466 47.5806C47.0701 47.9766 46.7992 48.2266 46.7992 48.2266C45.8718 49.0289 44.7778 49.727 43.6942 50.2271C43.2878 50.4147 42.9127 50.5501 42.5793 50.6648C41.3394 51.1024 40.0474 51.3629 38.745 51.4254C38.3074 51.4462 37.8593 51.4462 37.4113 51.4254C36.0985 51.3524 34.796 51.0919 33.5561 50.6543C33.1498 50.5085 32.7434 50.3418 32.3475 50.1542C31.1493 49.5811 30.0552 48.8414 29.0758 47.9453C28.9299 47.8098 28.7945 47.6744 28.6694 47.5494C28.5132 47.3931 28.3464 47.2159 28.1902 47.0492C27.2941 46.0594 26.5543 44.9445 26.0021 43.7359C25.8562 43.4129 25.7103 43.0794 25.5853 42.7356C25.5853 42.7356 25.4499 42.3813 25.2623 41.6937C25.0748 40.9956 24.9914 40.5996 24.9914 40.5996C24.8768 39.9641 24.8039 39.3285 24.7726 38.6929C24.7518 38.297 24.7518 37.901 24.7726 37.5155C24.8351 36.1714 25.0956 34.8481 25.5541 33.5874C25.6895 33.2227 25.8354 32.858 25.9917 32.5142C26.5543 31.2951 27.3045 30.1698 28.211 29.1696C28.3569 29.0029 28.5132 28.8466 28.659 28.7007C28.8049 28.5548 28.9612 28.3985 29.1279 28.2527C30.0865 27.3774 31.1701 26.6481 32.3475 26.0959C32.7434 25.9083 33.1394 25.7416 33.5561 25.5957C34.8169 25.1373 36.1401 24.8768 37.4842 24.8143C37.8698 24.7934 38.2657 24.7934 38.6616 24.8143C39.3076 24.8455 39.9641 24.9185 40.6101 25.0435C40.6101 25.0435 41.0893 25.1477 41.4749 25.2415C41.8604 25.3352 42.5689 25.5853 42.5689 25.5853C42.9127 25.7103 43.3087 25.8458 43.7046 26.0333C44.9133 26.596 46.0281 27.3253 47.018 28.2214C47.1951 28.3777 47.3618 28.534 47.5181 28.7007C47.6431 28.8257 47.7682 28.9612 47.914 29.1071C48.8101 30.0865 49.5603 31.1909 50.1229 32.3787C50.3105 32.7643 50.4772 33.1706 50.6231 33.5874C51.0711 34.8273 51.3316 36.1193 51.3941 37.4426C51.4254 37.8698 51.4254 38.3178 51.4045 38.7554Z" fill="white"/>
<path d="M40.287 26.648C39.7243 26.5438 39.1513 26.4709 38.5886 26.4501C38.2448 26.4397 37.901 26.4397 37.5571 26.4501C36.3901 26.5022 35.2232 26.7314 34.1187 27.1273C33.7645 27.2524 33.4102 27.3982 33.0664 27.5649C32.0661 28.0442 31.118 28.6694 30.2531 29.4508C30.1177 29.5759 29.9718 29.7113 29.8468 29.8468C29.7113 29.9822 29.5863 30.1177 29.4509 30.2531C28.6381 31.1492 27.9921 32.139 27.5129 33.181C27.367 33.4936 27.2419 33.8061 27.1273 34.1187C26.7314 35.2336 26.5022 36.3901 26.4501 37.5571C26.4292 37.901 26.4292 38.2448 26.4501 38.5886C26.4709 39.1513 26.5334 39.7035 26.6376 40.2557L37.4112 37.38L40.287 26.648Z" fill="white"/>
<path d="M27.0544 41.9126C27.0753 41.9647 27.0857 41.9855 27.0961 42.0376C27.2107 42.3711 27.3462 42.7045 27.5025 43.0275C27.9818 44.059 28.6173 45.0384 29.4196 45.9241C29.5551 46.0699 29.6905 46.2158 29.8364 46.3617C29.951 46.4763 30.0761 46.5909 30.1907 46.7055C31.0659 47.5078 32.0349 48.1538 33.056 48.6435C33.3998 48.8102 33.7541 48.9561 34.1084 49.0812C35.2024 49.4771 36.3381 49.7063 37.4738 49.7584C37.8593 49.7793 38.2553 49.7793 38.6408 49.7584C39.7765 49.7063 40.9122 49.4875 41.9958 49.102C42.3293 48.9874 42.6314 48.8728 42.9544 48.7269C43.9338 48.2789 44.882 47.6537 45.6739 46.9764L37.7656 39.0681L27.0544 41.9126Z" fill="white"/>
<path d="M49.0602 34.1292C48.9351 33.775 48.7893 33.4207 48.6226 33.0769C48.1329 32.0558 47.4868 31.0868 46.6846 30.2115C46.5699 30.0865 46.4553 29.9719 46.3407 29.8469C46.1948 29.701 46.049 29.5655 45.9031 29.4301C45.0175 28.6278 44.038 27.9922 43.0065 27.5129C42.6835 27.3671 42.3397 27.242 42.0062 27.117C41.9646 27.1066 41.9125 27.0857 41.8708 27.0753L38.9534 37.8802L46.8617 45.7885C47.6223 44.9237 48.1537 44.0797 48.5913 43.1628C48.7684 42.7982 48.956 42.3918 49.081 42.0271C49.4665 40.9435 49.6853 39.8078 49.7479 38.6617C49.7687 38.2761 49.7687 37.8802 49.7479 37.4947C49.6853 36.359 49.4561 35.2233 49.0602 34.1292Z" fill="white"/>
</g>
<defs>
<filter id="filter0_d_493_1163" x="14" y="18" width="48.0209" height="48" filterUnits="userSpaceOnUse" color-interpolation-filters="sRGB">
<feFlood flood-opacity="0" result="BackgroundImageFix"/>
<feColorMatrix in="SourceAlpha" type="matrix" values="0 0 0 0 0 0 0 0 0 0 0 0 0 0 0 0 0 0 127 0" result="hardAlpha"/>
<feOffset dy="4"/>
<feGaussianBlur stdDeviation="2"/>
<feComposite in2="hardAlpha" operator="out"/>
<feColorMatrix type="matrix" values="0 0 0 0 0 0 0 0 0 0 0 0 0 0 0 0 0 0 0.2 0"/>
<feBlend mode="overlay" in2="BackgroundImageFix" result="effect1_dropShadow_493_1163"/>
<feBlend mode="normal" in="SourceGraphic" in2="effect1_dropShadow_493_1163" result="shape"/>
</filter>
</defs>
</svg>
