<svg width="76" height="75" viewBox="0 0 76 75" fill="none" xmlns="http://www.w3.org/2000/svg">
<circle r="37.5" transform="matrix(1 0 0 -1 38.1665 37.5)" fill="#0A4D7C"/>
<g filter="url(#filter0_d_493_1181)">
<path d="M50.0068 33.9305L49.4943 34.8242C49.3068 35.1555 48.9068 35.293 48.5506 35.1617C47.8131 34.8867 47.1381 34.493 46.5443 33.9992C46.2568 33.7617 46.1818 33.343 46.3693 33.018L46.8818 32.1242C46.4506 31.6242 46.1131 31.043 45.8881 30.4117H44.8568C44.4818 30.4117 44.1568 30.143 44.0943 29.768C43.9693 29.018 43.9631 28.2305 44.0943 27.4492C44.1568 27.0742 44.4818 26.7992 44.8568 26.7992H45.8881C46.1131 26.168 46.4506 25.5867 46.8818 25.0867L46.3693 24.193C46.1818 23.868 46.2506 23.4492 46.5443 23.2117C47.1381 22.718 47.8193 22.3242 48.5506 22.0492C48.9068 21.918 49.3068 22.0555 49.4943 22.3867L50.0068 23.2805C50.6631 23.1617 51.3318 23.1617 51.9881 23.2805L52.5006 22.3867C52.6881 22.0555 53.0881 21.918 53.4443 22.0492C54.1818 22.3242 54.8568 22.718 55.4506 23.2117C55.7381 23.4492 55.8131 23.868 55.6256 24.193L55.1131 25.0867C55.5443 25.5867 55.8818 26.168 56.1068 26.7992H57.1381C57.5131 26.7992 57.8381 27.068 57.9006 27.443C58.0256 28.193 58.0318 28.9805 57.9006 29.7617C57.8381 30.1367 57.5131 30.4117 57.1381 30.4117H56.1068C55.8818 31.043 55.5443 31.6242 55.1131 32.1242L55.6256 33.018C55.8131 33.343 55.7443 33.7617 55.4506 33.9992C54.8568 34.493 54.1756 34.8867 53.4443 35.1617C53.0881 35.293 52.6881 35.1555 52.5006 34.8242L51.9881 33.9305C51.3381 34.0492 50.6631 34.0492 50.0068 33.9305ZM49.3506 30.2555C51.7568 32.1055 54.5006 29.3617 52.6506 26.9555C50.2443 25.0992 47.5006 27.8492 49.3506 30.2555ZM42.1443 39.8742L44.2506 40.9242C44.8818 41.2867 45.1568 42.0555 44.9068 42.743C44.3506 44.2555 43.2568 45.643 42.2443 46.8555C41.7818 47.4117 40.9818 47.5492 40.3506 47.1868L38.5318 46.1367C37.5318 46.993 36.3693 47.6742 35.1006 48.118V50.218C35.1006 50.943 34.5818 51.568 33.8693 51.693C32.3318 51.9555 30.7193 51.968 29.1256 51.693C28.4068 51.568 27.8756 50.9493 27.8756 50.218V48.118C26.6068 47.668 25.4443 46.993 24.4443 46.1367L22.6256 47.1805C22.0006 47.543 21.1943 47.4055 20.7318 46.8492C19.7193 45.6367 18.6506 44.2492 18.0943 42.743C17.8443 42.0617 18.1193 41.293 18.7506 40.9242L20.8318 39.8742C20.5881 38.568 20.5881 37.2242 20.8318 35.9117L18.7506 34.8555C18.1193 34.493 17.8381 33.7242 18.0943 33.043C18.6506 31.5305 19.7193 30.143 20.7318 28.9305C21.1943 28.3742 21.9943 28.2367 22.6256 28.5992L24.4443 29.6492C25.4443 28.793 26.6068 28.1117 27.8756 27.668V25.5617C27.8756 24.843 28.3881 24.218 29.1006 24.093C30.6381 23.8305 32.2568 23.818 33.8506 24.0867C34.5693 24.2117 35.1006 24.8305 35.1006 25.5617V27.6617C36.3693 28.1117 37.5318 28.7867 38.5318 29.643L40.3506 28.593C40.9756 28.2305 41.7818 28.368 42.2443 28.9242C43.2568 30.1367 44.3193 31.5242 44.8756 33.0367C45.1256 33.718 44.8818 34.4867 44.2506 34.8555L42.1443 35.9055C42.3881 37.218 42.3881 38.5617 42.1443 39.8742ZM34.7943 41.193C38.4943 36.3805 33.0006 30.8867 28.1881 34.5867C24.4881 39.3992 29.9818 44.893 34.7943 41.193ZM50.0068 52.6118L49.4943 53.5055C49.3068 53.8368 48.9068 53.9743 48.5506 53.843C47.8131 53.568 47.1381 53.1743 46.5443 52.6805C46.2568 52.443 46.1818 52.0243 46.3693 51.6993L46.8818 50.8055C46.4506 50.3055 46.1131 49.7243 45.8881 49.093H44.8568C44.4818 49.093 44.1568 48.8242 44.0943 48.4492C43.9693 47.6992 43.9631 46.9117 44.0943 46.1305C44.1568 45.7555 44.4818 45.4805 44.8568 45.4805H45.8881C46.1131 44.8492 46.4506 44.268 46.8818 43.768L46.3693 42.8742C46.1818 42.5492 46.2506 42.1305 46.5443 41.893C47.1381 41.3992 47.8193 41.0055 48.5506 40.7305C48.9068 40.5992 49.3068 40.7367 49.4943 41.068L50.0068 41.9617C50.6631 41.843 51.3318 41.843 51.9881 41.9617L52.5006 41.068C52.6881 40.7367 53.0881 40.5992 53.4443 40.7305C54.1818 41.0055 54.8568 41.3992 55.4506 41.893C55.7381 42.1305 55.8131 42.5492 55.6256 42.8742L55.1131 43.768C55.5443 44.268 55.8818 44.8492 56.1068 45.4805H57.1381C57.5131 45.4805 57.8381 45.7492 57.9006 46.1242C58.0256 46.8742 58.0318 47.6618 57.9006 48.443C57.8381 48.818 57.5131 49.093 57.1381 49.093H56.1068C55.8818 49.7243 55.5443 50.3055 55.1131 50.8055L55.6256 51.6993C55.8131 52.0243 55.7443 52.443 55.4506 52.6805C54.8568 53.1743 54.1756 53.568 53.4443 53.843C53.0881 53.9743 52.6881 53.8368 52.5006 53.5055L51.9881 52.6118C51.3381 52.7305 50.6631 52.7305 50.0068 52.6118ZM49.3506 48.9305C51.7568 50.7805 54.5006 48.0368 52.6506 45.6305C50.2443 43.7805 47.5006 46.5242 49.3506 48.9305Z" fill="white"/>
</g>
<defs>
<filter id="filter0_d_493_1181" x="14" y="22" width="47.9967" height="39.8922" filterUnits="userSpaceOnUse" color-interpolation-filters="sRGB">
<feFlood flood-opacity="0" result="BackgroundImageFix"/>
<feColorMatrix in="SourceAlpha" type="matrix" values="0 0 0 0 0 0 0 0 0 0 0 0 0 0 0 0 0 0 127 0" result="hardAlpha"/>
<feOffset dy="4"/>
<feGaussianBlur stdDeviation="2"/>
<feComposite in2="hardAlpha" operator="out"/>
<feColorMatrix type="matrix" values="0 0 0 0 0 0 0 0 0 0 0 0 0 0 0 0 0 0 0.2 0"/>
<feBlend mode="overlay" in2="BackgroundImageFix" result="effect1_dropShadow_493_1181"/>
<feBlend mode="normal" in="SourceGraphic" in2="effect1_dropShadow_493_1181" result="shape"/>
</filter>
</defs>
</svg>
