<svg width="76" height="75" viewBox="0 0 76 75" fill="none" xmlns="http://www.w3.org/2000/svg">
<circle r="37.5" transform="matrix(1 0 0 -1 37.8335 37.5)" fill="#0A4D7C"/>
<g filter="url(#filter0_d_493_1187)">
<path d="M57.1958 51.0335L54 22.2727C54 20.4645 52.5355 19 50.7273 19H37.6364H24.5455C22.7373 19 21.2727 20.4645 21.2727 22.2727L18.0769 51.0335C18.0295 51.2576 18 51.4884 18 51.7273C18 53.5355 19.4645 55 21.2727 55H37.6364H54C55.8082 55 57.2727 53.5355 57.2727 51.7273C57.2727 51.4884 57.2433 51.2576 57.1958 51.0335ZM45.8182 27.0313V28.8182C45.8182 33.3296 42.1478 37 37.6364 37C33.1249 37 29.4545 33.3296 29.4545 28.8182V27.0313C28.5038 26.6942 27.8182 25.7942 27.8182 24.7273C27.8182 23.3724 28.9178 22.2727 30.2727 22.2727C31.6276 22.2727 32.7273 23.3724 32.7273 24.7273V28.8182C32.7273 31.5247 34.9298 33.7273 37.6364 33.7273C40.3429 33.7273 42.5455 31.5247 42.5455 28.8182V24.7273C42.5455 23.3724 43.6451 22.2727 45 22.2727C46.3549 22.2727 47.4545 23.3724 47.4545 24.7273C47.4545 25.7942 46.7689 26.6942 45.8182 27.0313Z" fill="white"/>
</g>
<defs>
<filter id="filter0_d_493_1187" x="14" y="19" width="47.2727" height="44" filterUnits="userSpaceOnUse" color-interpolation-filters="sRGB">
<feFlood flood-opacity="0" result="BackgroundImageFix"/>
<feColorMatrix in="SourceAlpha" type="matrix" values="0 0 0 0 0 0 0 0 0 0 0 0 0 0 0 0 0 0 127 0" result="hardAlpha"/>
<feOffset dy="4"/>
<feGaussianBlur stdDeviation="2"/>
<feComposite in2="hardAlpha" operator="out"/>
<feColorMatrix type="matrix" values="0 0 0 0 0 0 0 0 0 0 0 0 0 0 0 0 0 0 0.2 0"/>
<feBlend mode="overlay" in2="BackgroundImageFix" result="effect1_dropShadow_493_1187"/>
<feBlend mode="normal" in="SourceGraphic" in2="effect1_dropShadow_493_1187" result="shape"/>
</filter>
</defs>
</svg>
