<svg width="75" height="75" viewBox="0 0 75 75" fill="none" xmlns="http://www.w3.org/2000/svg">
<circle r="37.5" transform="matrix(1 0 0 -1 37.5 37.5)" fill="#0A4D7C"/>
<g filter="url(#filter0_d_493_1198)">
<path d="M53 25.3125V22.0625C53 18.849 43.9649 18 39.1875 18C34.4101 18 25.375 18.849 25.375 22.0625V25.3125C25.375 27.4963 25.8981 29.5556 26.8043 31.3933C24.873 31.7422 23.0892 32.3193 21.5008 33.0793C21.4958 33.0818 21.4907 33.0834 21.4858 33.0861C16.9276 35.272 14 38.9549 14 43.0621C14 46.736 16.3574 51.1432 27.2778 51.9778C27.1019 52.2742 27 52.5923 27 52.9375C27 55.7289 33.3175 57 39.1875 57C45.0575 57 51.375 55.7289 51.375 52.9375C51.375 50.9743 48.3063 49.8198 44.6877 49.2716C46.9677 47.7664 48.125 45.6883 48.125 43.0621C48.125 41.0859 47.3999 39.1534 46.0877 37.4091L46.5033 37.0071C50.3977 34.5619 53 30.2406 53 25.3125ZM39.1875 23.6875C33.1755 23.6875 29.3986 22.6949 28.6932 22.0625C29.3986 21.4301 33.1755 20.4375 39.1875 20.4375C45.1995 20.4375 48.9764 21.4301 49.6818 22.0625C48.9764 22.6949 45.1995 23.6875 39.1875 23.6875ZM20.5197 37.418C20.5103 38.84 20.795 40.1814 21.7616 40.6643C21.8766 40.7214 22.0012 40.75 22.125 40.75C22.3075 40.75 22.4884 40.6889 22.636 40.5691C23.3176 40.0184 23.9214 38.8362 24.8505 36.9517C25.1805 36.2827 25.5324 35.5767 25.8957 34.9028C26.5568 34.7307 27.2406 34.5871 27.949 34.4833L28.8652 34.4591C28.9172 34.5176 28.9704 34.575 29.0232 34.6327C28.7378 36.134 27.955 41.1551 30.0096 42.2758C30.1318 42.3425 30.2651 42.375 30.3984 42.375C30.592 42.375 30.784 42.306 30.9355 42.1719C31.6552 41.5372 32.3438 40.1305 33.1688 38.3192C35.3437 40.4105 36.557 41.7289 36.75 44.8641C36.8169 45.9515 36.7318 47.002 36.5792 47.9695L29.3455 48.848C23.8278 48.6671 17.25 47.5166 17.25 43.0621C17.25 40.9522 18.4811 38.9683 20.5197 37.418ZM41.7015 47.1975C41.6206 46.4494 41.5754 45.6711 41.625 44.8641C41.7682 42.5324 42.5266 41.1435 43.7772 39.7355C44.4921 40.804 44.875 41.9186 44.875 43.0621C44.875 44.3398 44.4732 45.9373 41.7015 47.1975Z" fill="white"/>
</g>
<defs>
<filter id="filter0_d_493_1198" x="10" y="18" width="47" height="47" filterUnits="userSpaceOnUse" color-interpolation-filters="sRGB">
<feFlood flood-opacity="0" result="BackgroundImageFix"/>
<feColorMatrix in="SourceAlpha" type="matrix" values="0 0 0 0 0 0 0 0 0 0 0 0 0 0 0 0 0 0 127 0" result="hardAlpha"/>
<feOffset dy="4"/>
<feGaussianBlur stdDeviation="2"/>
<feComposite in2="hardAlpha" operator="out"/>
<feColorMatrix type="matrix" values="0 0 0 0 0 0 0 0 0 0 0 0 0 0 0 0 0 0 0.2 0"/>
<feBlend mode="overlay" in2="BackgroundImageFix" result="effect1_dropShadow_493_1198"/>
<feBlend mode="normal" in="SourceGraphic" in2="effect1_dropShadow_493_1198" result="shape"/>
</filter>
</defs>
</svg>
