<svg width="75" height="75" viewBox="0 0 75 75" fill="none" xmlns="http://www.w3.org/2000/svg">
<circle r="37.5" transform="matrix(1 0 0 -1 37.5 37.5)" fill="#0A4D7C"/>
<g filter="url(#filter0_d_493_1203)">
<path fill-rule="evenodd" clip-rule="evenodd" d="M45.372 18.926L50.9078 24.4619H35.3633L40.8991 18.926C42.1339 17.6913 44.1372 17.6913 45.372 18.926ZM29.721 19.2777H37.6609L32.4685 24.4619H26.5483V22.4422C26.5483 20.7005 27.9711 19.2777 29.721 19.2777ZM38.4214 56.8838H46.0996C47.7841 56.8838 49.1578 55.5101 49.1578 53.8256V51.765H43.5402L38.4214 56.8838ZM30.3673 57.1046L25.0195 51.7568H40.0407L34.693 57.1046C33.4991 58.2985 31.5612 58.2985 30.3673 57.1046ZM38.2168 31.1753C34.39 31.1753 31.2827 34.2825 31.2827 38.1094C31.2827 41.9362 34.39 45.0435 38.2168 45.0435C42.0437 45.0435 45.151 41.9362 45.151 38.1094C45.151 34.2825 42.0437 31.1753 38.2168 31.1753ZM40.2039 40.8487C39.9013 41.2167 39.5088 41.462 39.0509 41.5928C38.8465 41.65 38.7647 41.7563 38.7729 41.9608C38.7783 42.0971 38.7765 42.2333 38.7747 42.3696C38.7738 42.4378 38.7729 42.5059 38.7729 42.5741C38.7729 42.7539 38.6829 42.8521 38.503 42.8603C38.2823 42.8684 38.0615 42.8684 37.8407 42.8603C37.6444 42.8603 37.5545 42.7458 37.5545 42.5577C37.5545 42.4105 37.5545 42.2551 37.5463 42.108C37.5463 41.7809 37.53 41.7645 37.2111 41.7155C36.8022 41.65 36.4097 41.5601 36.0336 41.3802C35.7392 41.2412 35.7147 41.1676 35.7964 40.8569C35.8164 40.787 35.8356 40.717 35.8548 40.6474C35.8983 40.4889 35.9416 40.3315 35.9927 40.1782C36.0745 39.9165 36.148 39.8838 36.3852 40.0065C36.794 40.2191 37.2356 40.3417 37.6935 40.399C37.9879 40.4398 38.2741 40.4071 38.5521 40.2845C39.0591 40.0637 39.1408 39.4668 38.7075 39.1152C38.5603 38.9925 38.3967 38.9026 38.2168 38.829C38.0791 38.7689 37.9398 38.7133 37.8008 38.658C37.4861 38.5326 37.1733 38.4079 36.884 38.232C36.1971 37.8232 35.7637 37.259 35.8128 36.4249C35.87 35.4846 36.4015 34.8958 37.2683 34.5769L37.2908 34.5687C37.4578 34.5081 37.5421 34.4775 37.5847 34.4173C37.6281 34.356 37.6281 34.2639 37.6281 34.0781V33.702C37.6363 33.4239 37.6853 33.3749 37.9633 33.3667H38.225C38.5235 33.3667 38.6727 33.3667 38.7473 33.4413C38.8219 33.5159 38.8219 33.6652 38.8219 33.9636C38.8219 34.3888 38.8219 34.3888 39.2471 34.4543C39.566 34.5033 39.8768 34.6014 40.1711 34.7323C40.3347 34.8059 40.4001 34.9203 40.3429 35.0921L40.3024 35.2319C40.2421 35.441 40.1807 35.6536 40.1139 35.8607C40.0321 36.0978 39.9585 36.1387 39.7296 36.0242C39.2635 35.7953 38.7729 35.7053 38.2659 35.7299C38.1269 35.7381 37.9961 35.7544 37.8734 35.8116C37.4318 36.0079 37.3582 36.4985 37.7344 36.8011C37.9225 36.9564 38.1432 37.0627 38.3722 37.1609L38.5226 37.2232C38.8647 37.3649 39.2052 37.5059 39.5333 37.6842C40.7189 38.3383 41.046 39.8266 40.2039 40.8487ZM50.2207 38.461C50.2207 39.5222 49.3603 40.3826 48.299 40.3826C47.2378 40.3826 46.3774 39.5222 46.3774 38.461C46.3774 37.3997 47.2378 36.5394 48.299 36.5394C49.3603 36.5394 50.2207 37.3997 50.2207 38.461ZM28.1267 40.3826C29.1879 40.3826 30.0483 39.5222 30.0483 38.461C30.0483 37.3997 29.1879 36.5394 28.1267 36.5394C27.0654 36.5394 26.2051 37.3997 26.2051 38.461C26.2051 39.5222 27.0654 40.3826 28.1267 40.3826ZM22.9013 26.8005H53.0909C54.8408 26.8005 56.2554 28.2233 56.2636 29.965V46.2537C56.2636 47.9954 54.8408 49.4182 53.0991 49.4182H22.9013C21.1596 49.4182 19.7368 47.9954 19.7368 46.2537V29.965C19.7368 28.2233 21.1596 26.8005 22.9013 26.8005ZM52.7638 43.1219C53.0418 43.1219 53.3035 43.1546 53.5569 43.22V33.3994C53.3035 33.4648 53.0336 33.4975 52.7638 33.4975C50.9894 33.4975 49.5584 32.0584 49.5584 30.2921C49.5584 30.0223 49.5911 29.7606 49.6565 29.5071H26.1475C26.1884 29.6952 26.2048 29.8915 26.2048 30.0959C26.2048 31.8703 24.7656 33.3013 22.9994 33.3013C22.8031 33.3013 22.6151 33.2849 22.4352 33.2522V42.9829C22.6232 42.9502 22.8031 42.9338 22.9994 42.9338C24.7738 42.9338 26.2048 44.373 26.2048 46.1392C26.2048 46.3436 26.1802 46.5399 26.1475 46.728H49.5829C49.5665 46.5971 49.5584 46.4581 49.5584 46.3273C49.5584 44.5529 50.9975 43.1219 52.7638 43.1219Z" fill="white"/>
</g>
<defs>
<filter id="filter0_d_493_1203" x="15.7368" y="18" width="44.5268" height="48" filterUnits="userSpaceOnUse" color-interpolation-filters="sRGB">
<feFlood flood-opacity="0" result="BackgroundImageFix"/>
<feColorMatrix in="SourceAlpha" type="matrix" values="0 0 0 0 0 0 0 0 0 0 0 0 0 0 0 0 0 0 127 0" result="hardAlpha"/>
<feOffset dy="4"/>
<feGaussianBlur stdDeviation="2"/>
<feComposite in2="hardAlpha" operator="out"/>
<feColorMatrix type="matrix" values="0 0 0 0 0 0 0 0 0 0 0 0 0 0 0 0 0 0 0.2 0"/>
<feBlend mode="overlay" in2="BackgroundImageFix" result="effect1_dropShadow_493_1203"/>
<feBlend mode="normal" in="SourceGraphic" in2="effect1_dropShadow_493_1203" result="shape"/>
</filter>
</defs>
</svg>
